<?xml version="1.0" encoding="UTF-8"?>
<svg version="1.1" xmlns="http://www.w3.org/2000/svg" width="1520" height="603">
<path d="M0 0 C1.14275391 0.16604736 1.14275391 0.16604736 2.30859375 0.33544922 C30.57943355 4.5436545 57.22764142 13.81537796 83 26 C83.68497559 26.32323242 84.36995117 26.64646484 85.07568359 26.97949219 C105.21827347 36.57120165 123.8932982 48.66372318 141 63 C142.00546875 63.82113281 143.0109375 64.64226562 144.046875 65.48828125 C158.26782038 77.2513628 171.78013619 90.32331195 183 105 C184.07065115 106.33385289 185.14379197 107.66570935 186.21875 108.99609375 C213.76090241 143.33741846 233.11564125 184.87480665 242 228 C242.34587158 229.67425049 242.34587158 229.67425049 242.69873047 231.38232422 C257.43414941 305.10032225 245.85948954 385.77407398 204.0625 449.25 C202.71799916 451.17345937 201.36286617 453.08950942 200 455 C199.0738072 456.34647911 198.1494646 457.694232 197.2265625 459.04296875 C190.95504696 468.14892332 184.32745054 476.7235122 177 485 C176.2059375 485.90492188 175.411875 486.80984375 174.59375 487.7421875 C169.90957635 493.0199037 165.03859916 498.06150545 160 503 C159.154375 503.845625 158.30875 504.69125 157.4375 505.5625 C156.633125 506.366875 155.82875 507.17125 155 508 C154.54882812 508.48597656 154.09765625 508.97195313 153.6328125 509.47265625 C147.70497705 515.71015474 140.83124535 520.80811221 134 526 C133.40654785 526.4542334 132.8130957 526.9084668 132.20166016 527.37646484 C70.48924779 574.42857359 -7.75342565 595.57065119 -84.8125 585.3125 C-89.55863688 584.62585894 -94.28060806 583.85050338 -99 583 C-100.04333496 582.81276367 -101.08666992 582.62552734 -102.16162109 582.43261719 C-153.7921604 572.82191722 -202.83940147 548.56292199 -241.63671875 513.14453125 C-243.7074303 511.26548887 -245.81078337 509.43985594 -247.9375 507.625 C-255.8742003 500.70046998 -263.26089085 493.08957896 -270 485 C-270.45068848 484.46842285 -270.90137695 483.9368457 -271.36572266 483.38916016 C-280.06992707 473.1003513 -287.82355005 462.40511605 -295 451 C-295.43940918 450.30293945 -295.87881836 449.60587891 -296.33154297 448.88769531 C-328.33633336 397.57823582 -340.9590304 339.88838756 -340 280 C-339.98743164 279.14438477 -339.97486328 278.28876953 -339.96191406 277.40722656 C-338.9860951 227.2023368 -322.57184867 172.59605319 -294 131 C-293.50371094 130.26910156 -293.00742187 129.53820312 -292.49609375 128.78515625 C-284.71492871 117.37668119 -276.46165874 106.56926588 -267.14453125 96.36328125 C-265.26548887 94.2925697 -263.43985594 92.18921663 -261.625 90.0625 C-254.70171432 82.12722592 -247.09275985 74.73296497 -239 68 C-238.45778809 67.54399414 -237.91557617 67.08798828 -237.35693359 66.61816406 C-223.68525635 55.1497288 -209.32622988 45.13132609 -194 36 C-193.00871094 35.37867188 -192.01742187 34.75734375 -190.99609375 34.1171875 C-154.65914613 12.09209287 -110.08266616 0.50844401 -68 -3 C-67.26813477 -3.06316406 -66.53626953 -3.12632813 -65.78222656 -3.19140625 C-43.73636701 -4.99576916 -21.82969105 -3.24310764 0 0 Z " fill="#003E69" transform="translate(347,13)"/>
<path d="M0 0 C2.94794922 0.02375601 5.89499544 0.02050459 8.84301758 0.01391602 C20.60203389 0.03143871 32.10546571 0.70663485 43.7512207 2.33618164 C44.50257294 2.44090286 45.25392517 2.54562408 46.02804565 2.65351868 C97.28915362 9.91197916 146.16203736 33.88210886 183.7512207 69.33618164 C185.18164839 70.59426864 186.61833639 71.84530677 188.0637207 73.08618164 C194.50408408 78.68823326 200.25052701 84.81872386 205.7512207 91.33618164 C206.18644043 91.84165527 206.62166016 92.34712891 207.07006836 92.86791992 C223.34588662 111.83902683 239.32500772 133.8386687 247.7512207 157.56665039 C248.58782058 159.88363989 249.53314596 162.01039277 250.6262207 164.21118164 C252.23163294 168.67066007 251.67933905 172.14973021 249.82348633 176.52172852 C248.62423001 178.93045628 247.36159841 181.29166234 246.0637207 183.64868164 C245.61399902 184.48375244 245.16427734 185.31882324 244.70092773 186.17919922 C241.54581811 191.99944185 238.25217896 197.71622233 234.7512207 203.33618164 C238.7112207 203.66618164 242.6712207 203.99618164 246.7512207 204.33618164 C245.44161426 211.59854467 242.99165884 217.71925644 239.7512207 224.33618164 C239.0912207 224.33618164 238.4312207 224.33618164 237.7512207 224.33618164 C237.4212207 223.67618164 237.0912207 223.01618164 236.7512207 222.33618164 C236.0912207 222.33618164 235.4312207 222.33618164 234.7512207 222.33618164 C231.42171567 226.14133025 229.41121208 228.62956862 229.4387207 233.77368164 C229.5418457 234.94930664 229.6449707 236.12493164 229.7512207 237.33618164 C228.7612207 237.33618164 227.7712207 237.33618164 226.7512207 237.33618164 C225.15843601 235.25797685 223.79460599 233.24987347 222.4387207 231.02368164 C221.84812866 230.0776709 221.84812866 230.0776709 221.24560547 229.11254883 C211.7512207 213.75893823 211.7512207 213.75893823 211.7512207 210.33618164 C216.7012207 210.66618164 221.6512207 210.99618164 226.7512207 211.33618164 C225.16682597 207.14219559 223.3065326 203.56323943 220.8137207 199.83618164 C216.91331553 193.85948319 213.61816011 187.59580958 210.3137207 181.27368164 C209.49689819 179.71907227 209.49689819 179.71907227 208.66357422 178.13305664 C208.15753662 177.15723633 207.65149902 176.18141602 207.13012695 175.17602539 C206.44285522 173.85139282 206.44285522 173.85139282 205.74169922 172.5 C204.7512207 170.33618164 204.7512207 170.33618164 204.7512207 168.33618164 C209.3712207 168.33618164 213.9912207 168.33618164 218.7512207 168.33618164 C216.71779506 163.1703592 214.26037764 158.9170156 211.0637207 154.39868164 C206.52596308 147.81212603 202.8820439 141.00742972 199.44262695 133.79711914 C197.86798659 130.43763289 197.86798659 130.43763289 196.1965332 127.79321289 C194.46233526 124.84507639 193.27732679 121.84487544 192.0637207 118.64868164 C191.62672852 117.51043945 191.18973633 116.37219727 190.73950195 115.19946289 C189.7512207 112.33618164 189.7512207 112.33618164 189.7512207 110.33618164 C186.98625606 112.74540816 185.78063004 115.13778326 184.3684082 118.50024414 C183.70748169 120.04796509 183.70748169 120.04796509 183.03320312 121.62695312 C182.33674683 123.27739624 182.33674683 123.27739624 181.6262207 124.96118164 C175.87479427 138.31164796 169.61782054 151.21035967 161.74731445 163.45336914 C160.51740324 165.42313132 160.51740324 165.42313132 160.7512207 168.33618164 C164.3812207 168.33618164 168.0112207 168.33618164 171.7512207 168.33618164 C171.23792671 174.06490926 168.94754384 178.31252734 166.2512207 183.27368164 C165.8092334 184.10254883 165.36724609 184.93141602 164.91186523 185.78540039 C161.62778057 191.88357968 158.14888623 197.85047435 154.44458008 203.703125 C152.22899836 207.23596453 152.22899836 207.23596453 151.7512207 211.33618164 C156.97101199 211.51617444 160.82385051 211.30712972 165.7512207 209.33618164 C164.77556569 213.79508542 162.76069572 217.45778323 160.6262207 221.46118164 C160.22604736 222.21584717 159.82587402 222.9705127 159.41357422 223.74804688 C156.2671349 229.58518256 152.78123698 235.0621732 148.7512207 240.33618164 C144.199402 239.77772321 144.199402 239.77772321 142.16918945 237.77758789 C141.76313477 237.15754883 141.35708008 236.53750977 140.9387207 235.89868164 C140.51977539 235.2812207 140.10083008 234.66375977 139.66918945 234.02758789 C138.7512207 232.33618164 138.7512207 232.33618164 138.7512207 230.33618164 C142.3812207 230.99618164 146.0112207 231.65618164 149.7512207 232.33618164 C149.00600586 230.84575195 148.26076106 229.35533723 147.51538086 227.86499023 C146.87781632 226.58953403 146.24077702 225.31381513 145.60424805 224.0378418 C144.15075904 221.12572259 142.69077992 218.21805435 141.20825195 215.32055664 C140.76868164 214.45946289 140.32911133 213.59836914 139.8762207 212.71118164 C139.48692383 211.95579102 139.09762695 211.20040039 138.6965332 210.42211914 C137.78087294 208.4016126 137.21169823 206.50140575 136.7512207 204.33618164 C139.3912207 204.33618164 142.0312207 204.33618164 144.7512207 204.33618164 C142.36636486 199.36773197 139.75387827 194.63798574 136.9387207 189.89868164 C133.32019966 183.7553541 130.5549466 177.41277649 128.00976562 170.75830078 C126.75344751 166.83536067 126.75344751 166.83536067 123.7512207 164.33618164 C123.4005957 165.53243164 123.0499707 166.72868164 122.6887207 167.96118164 C119.19487612 178.34521275 113.74736822 187.74090702 107.68432617 196.80566406 C106.00755485 199.31787806 104.71264089 201.45192108 103.7512207 204.33618164 C106.7212207 204.00618164 109.6912207 203.67618164 112.7512207 203.33618164 C111.13908392 208.98326649 108.46696671 213.88765967 105.6887207 219.02368164 C104.77913941 220.71399751 103.87150026 222.40536032 102.96606445 224.09790039 C102.56508545 224.83999756 102.16410645 225.58209473 101.75097656 226.34667969 C100.6319219 228.45505914 100.6319219 228.45505914 99.7512207 231.33618164 C102.7212207 231.33618164 105.6912207 231.33618164 108.7512207 231.33618164 C107.33285713 236.49386735 105.07730496 241.13593422 101.7512207 245.33618164 C101.0912207 245.33618164 100.4312207 245.33618164 99.7512207 245.33618164 C98.7612207 243.35618164 97.7712207 241.37618164 96.7512207 239.33618164 C98.4012207 239.33618164 100.0512207 239.33618164 101.7512207 239.33618164 C101.20852539 238.25079102 100.66583008 237.16540039 100.10668945 236.04711914 C96.98819987 229.81013997 93.86971029 223.57316081 90.7512207 217.33618164 C88.39170985 219.6956925 87.38206151 221.95263484 85.9387207 224.96118164 C83.47887065 229.97758346 80.80699025 234.66265175 77.7512207 239.33618164 C79.7312207 239.33618164 81.7112207 239.33618164 83.7512207 239.33618164 C82.1012207 243.29618164 80.4512207 247.25618164 78.7512207 251.33618164 C59.10599955 241.51357106 39.94996197 219.67693392 26.60668945 202.57836914 C23.04739007 198.27723683 19.10826419 194.1218628 13.7512207 192.33618164 C10.96509671 192.161512 8.22629658 192.05920725 5.4387207 192.02368164 C4.69170898 191.99467773 3.94469727 191.96567383 3.17504883 191.93579102 C-3.08901124 191.86429604 -6.39221237 193.83146742 -11.11987305 197.97680664 C-14.62644869 201.57957263 -17.98366077 205.27546796 -21.27612305 209.07446289 C-34.98079684 224.78734631 -49.3675151 240.0144872 -66.2487793 252.33618164 C-68.60594334 250.18163915 -70.03844074 248.1389829 -71.4362793 245.27368164 C-71.78045898 244.58145508 -72.12463867 243.88922852 -72.47924805 243.17602539 C-73.2487793 241.33618164 -73.2487793 241.33618164 -73.2487793 239.33618164 C-71.5987793 239.33618164 -69.9487793 239.33618164 -68.2487793 239.33618164 C-68.81145508 238.33651367 -68.81145508 238.33651367 -69.38549805 237.31665039 C-73.01017953 230.78857166 -76.25832225 224.17718294 -79.2487793 217.33618164 C-81.32413537 219.97646272 -82.97556026 222.56400433 -84.4362793 225.58618164 C-84.78045898 226.29258789 -85.12463867 226.99899414 -85.47924805 227.72680664 C-85.73319336 228.25790039 -85.98713867 228.78899414 -86.2487793 229.33618164 C-89.15070078 226.64308138 -91.07324667 224.18439351 -92.8269043 220.64086914 C-93.26518555 219.76043945 -93.7034668 218.88000977 -94.1550293 217.97290039 C-94.5984668 217.0615332 -95.0419043 216.15016602 -95.4987793 215.21118164 C-95.95768555 214.29208008 -96.4165918 213.37297852 -96.8894043 212.42602539 C-100.2487793 205.61729213 -100.2487793 205.61729213 -100.2487793 203.33618164 C-97.2787793 203.66618164 -94.3087793 203.99618164 -91.2487793 204.33618164 C-91.60593018 203.75352539 -91.96308105 203.17086914 -92.33105469 202.57055664 C-111.2487793 171.55609464 -111.2487793 171.55609464 -111.2487793 164.33618164 C-114.4496156 165.93659979 -115.07041228 169.28904333 -116.3737793 172.46118164 C-121.08896044 183.58288619 -126.63808576 194.21355716 -133.2487793 204.33618164 C-130.6087793 204.33618164 -127.9687793 204.33618164 -125.2487793 204.33618164 C-125.87522648 209.14206005 -127.8725115 212.96076142 -130.0612793 217.21118164 C-130.40481445 217.8930957 -130.74834961 218.57500977 -131.10229492 219.27758789 C-133.35299133 223.71141759 -135.75114377 228.03688094 -138.2487793 232.33618164 C-136.81086414 232.19450027 -135.3734556 232.04767121 -133.9362793 231.89868164 C-133.13577148 231.8174707 -132.33526367 231.73625977 -131.51049805 231.65258789 C-129.0879075 231.38352471 -129.0879075 231.38352471 -126.2487793 230.33618164 C-128.2363826 237.21634693 -128.2363826 237.21634693 -131.2487793 239.33618164 C-132.90861981 239.70199357 -134.57535527 240.03862337 -136.2487793 240.33618164 C-153.2487793 216.98055854 -153.2487793 216.98055854 -153.2487793 209.33618164 C-152.4237793 209.66618164 -151.5987793 209.99618164 -150.7487793 210.33618164 C-146.66138099 211.50400973 -143.47954585 211.48207014 -139.2487793 211.33618164 C-139.89486107 208.11445422 -141.05255272 205.69837425 -142.7253418 202.87915039 C-143.228479 202.02047363 -143.73161621 201.16179687 -144.25 200.27709961 C-144.78584717 199.36847168 -145.32169434 198.45984375 -145.8737793 197.52368164 C-156.35364578 179.451498 -156.35364578 179.451498 -159.2487793 171.33618164 C-158.9187793 170.34618164 -158.5887793 169.35618164 -158.2487793 168.33618164 C-154.9487793 168.33618164 -151.6487793 168.33618164 -148.2487793 168.33618164 C-151.4875968 161.62992422 -154.91568129 155.10328344 -158.6237793 148.64868164 C-165.57840834 136.47146436 -171.80821189 123.65788385 -176.2487793 110.33618164 C-176.9087793 110.33618164 -177.5687793 110.33618164 -178.2487793 110.33618164 C-178.42401123 110.88725586 -178.59924316 111.43833008 -178.77978516 112.00610352 C-184.64812031 130.08142042 -193.48106442 147.26991688 -205.0690918 162.35571289 C-206.58994727 164.52473815 -206.58994727 164.52473815 -206.2487793 168.33618164 C-201.6287793 168.33618164 -197.0087793 168.33618164 -192.2487793 168.33618164 C-197.24045129 182.00902231 -204.47278865 194.5781447 -212.4987793 206.67602539 C-214.21626694 209.17286086 -214.21626694 209.17286086 -215.2487793 211.33618164 C-212.97764126 211.19517307 -210.70687205 211.04821409 -208.4362793 210.89868164 C-207.17170898 210.8174707 -205.90713867 210.73625977 -204.60424805 210.65258789 C-201.25696037 210.46433617 -201.25696037 210.46433617 -198.2487793 209.33618164 C-199.7264258 214.38218726 -201.90907388 218.67503581 -204.4987793 223.21118164 C-204.89701904 223.91500977 -205.29525879 224.61883789 -205.70556641 225.34399414 C-208.55516759 230.30681499 -211.63493017 234.88836733 -215.2487793 239.33618164 C-216.79174805 238.03540039 -216.79174805 238.03540039 -218.2487793 236.33618164 C-217.9084668 234.75836914 -217.9084668 234.75836914 -217.5612793 233.14868164 C-217.15236732 228.1599555 -218.8084295 226.55272912 -221.90112305 222.84008789 C-222.34584961 222.34379883 -222.79057617 221.84750977 -223.2487793 221.33618164 C-224.8987793 221.66618164 -226.5487793 221.99618164 -228.2487793 222.33618164 C-229.04301791 220.77498742 -229.83405053 219.212162 -230.6237793 217.64868164 C-231.06463867 216.77856445 -231.50549805 215.90844727 -231.9597168 215.01196289 C-235.2487793 208.18466649 -235.2487793 208.18466649 -235.2487793 204.33618164 C-231.2887793 204.00618164 -227.3287793 203.67618164 -223.2487793 203.33618164 C-225.16219765 198.61483665 -227.29692377 194.4506077 -230.0612793 190.14868164 C-232.75878447 185.80769646 -235.39207282 181.46610584 -237.8112793 176.96118164 C-238.30756836 176.04594727 -238.80385742 175.13071289 -239.31518555 174.18774414 C-241.54938513 167.36361989 -238.15519456 161.16361255 -235.3112793 155.02368164 C-234.91303955 154.15356445 -234.5147998 153.28344727 -234.10449219 152.38696289 C-217.12475367 115.89556457 -190.59993952 80.62259394 -158.2487793 56.33618164 C-157.71285156 55.92384277 -157.17692383 55.51150391 -156.62475586 55.08666992 C-126.05496652 31.5813277 -90.40008935 14.29688216 -52.7487793 5.77368164 C-51.9340918 5.57838867 -51.1194043 5.3830957 -50.2800293 5.18188477 C-33.60383129 1.37266394 -17.07961339 -0.14656337 0 0 Z " fill="#62BCE5" transform="translate(295.248779296875,36.663818359375)"/>
<path d="M0 0 C1.36872002 -0.01073296 1.36872002 -0.01073296 2.76509094 -0.02168274 C3.77436646 -0.02437164 4.78364197 -0.02706055 5.82350159 -0.02983093 C6.88047745 -0.03640213 7.93745331 -0.04297333 9.02645874 -0.04974365 C12.54417484 -0.0695424 16.061848 -0.08115736 19.5796051 -0.09111023 C20.77978838 -0.09518576 21.97997166 -0.09926128 23.21652412 -0.10346031 C29.57574926 -0.12435475 35.93495263 -0.1386386 42.29420471 -0.147995 C48.85457473 -0.15903206 55.41460298 -0.19339141 61.97485256 -0.23316669 C67.02362686 -0.25936469 72.07232041 -0.26768997 77.12115669 -0.27127647 C79.5383693 -0.27613865 81.95557839 -0.28774202 84.37272453 -0.30631447 C87.766744 -0.33075961 91.15988909 -0.32972992 94.55397034 -0.32279968 C95.54502777 -0.33560974 96.53608521 -0.3484198 97.55717468 -0.36161804 C105.45161969 -0.3031683 111.73932197 1.76480911 118.52101135 5.77217102 C123.67109606 11.20837155 127.85250818 17.96752296 127.94801331 25.56758118 C127.96726616 26.90509933 127.96726616 26.90509933 127.98690796 28.26963806 C127.99429489 29.23211456 128.00168182 30.19459106 128.0092926 31.18623352 C128.01736435 32.18166168 128.0254361 33.17708984 128.03375244 34.2026825 C128.04758867 36.31257896 128.05831289 38.42249776 128.06617737 40.53242493 C128.08333432 43.73908273 128.12721856 46.94469436 128.17140198 50.15107727 C128.18153427 52.20445513 128.19004869 54.25784174 128.1967926 56.31123352 C128.21430069 57.26156464 128.23180878 58.21189575 128.24984741 59.19102478 C128.21997225 68.48975832 125.08758396 75.62767877 118.7592926 82.41670227 C113.217501 87.23991186 107.99983925 88.35771941 100.77101135 88.14717102 C106.42578609 95.17545694 112.23368702 102.04685976 118.1643219 108.84272766 C119.21208409 110.04386796 120.25243888 111.25151663 121.28468323 112.46601868 C122.66167579 114.02350403 124.15849064 115.47277623 125.66163635 116.90888977 C128.69872836 121.57138843 128.20445888 125.73389305 127.77101135 131.14717102 C123.37897613 131.42150536 118.99160398 131.61971126 114.59352112 131.75141907 C113.10207729 131.80635937 111.61121577 131.881155 110.12184143 131.977005 C97.78776129 132.75021083 97.78776129 132.75021083 92.93849182 128.89570618 C90.64655358 126.08547353 88.69743105 123.21651074 86.77101135 120.14717102 C85.73640622 118.87398664 84.6773404 117.61985016 83.58351135 116.39717102 C83.11695129 115.85705383 82.65039124 115.31693665 82.16969299 114.76045227 C81.47734558 113.96187805 81.47734558 113.96187805 80.77101135 113.14717102 C76.3696482 108.04218141 72.05190574 102.88276333 67.8061676 97.64717102 C66.79876526 96.40967102 66.79876526 96.40967102 65.77101135 95.14717102 C65.07201721 94.11769348 64.37302307 93.08821594 63.65284729 92.02754211 C61.33252057 89.26368855 60.83376902 89.15847834 56.99049377 88.46601868 C55.53547711 88.46750465 54.08021337 88.50011657 52.6264801 88.56123352 C51.94347839 88.567276 51.26047668 88.57331848 50.55677795 88.57954407 C48.02340101 88.61076303 45.49089083 88.69453352 42.95851135 88.77217102 C34.45069885 88.95779602 34.45069885 88.95779602 25.77101135 89.14717102 C25.77101135 103.00717102 25.77101135 116.86717102 25.77101135 131.14717102 C15.54101135 131.14717102 5.31101135 131.14717102 -5.22898865 131.14717102 C-5.25153542 114.21454588 -5.26996767 97.28193349 -5.28080082 80.34929752 C-5.28596384 72.48772711 -5.29300665 64.62616667 -5.3044281 56.76460266 C-5.31437475 49.91491627 -5.32084203 43.0652371 -5.32307714 36.21554369 C-5.32438428 32.58647706 -5.32747034 28.95743108 -5.3347187 25.32837105 C-5.34273221 21.28366798 -5.3429798 17.23900113 -5.34251404 13.19429016 C-5.34610931 11.98228943 -5.34970459 10.7702887 -5.35340881 9.52156067 C-5.35203415 8.42634598 -5.35065948 7.33113129 -5.34924316 6.20272827 C-5.35016496 5.24498536 -5.35108675 4.28724245 -5.35203648 3.30047703 C-5.13272823 -0.53736207 -3.39497086 0.01819758 0 0 Z M25.77101135 29.14717102 C25.77101135 39.04717102 25.77101135 48.94717102 25.77101135 59.14717102 C49.53101135 59.14717102 73.29101135 59.14717102 97.77101135 59.14717102 C97.77101135 49.24717102 97.77101135 39.34717102 97.77101135 29.14717102 C74.01101135 29.14717102 50.25101135 29.14717102 25.77101135 29.14717102 Z " fill="#FFFFFF" transform="translate(756.2289886474609,160.8528289794922)"/>
<path d="M0 0 C1.29570419 -0.0098568 1.29570419 -0.0098568 2.61758423 -0.01991272 C5.47992033 -0.03964203 8.34220389 -0.05130939 11.20458984 -0.0612793 C12.18353588 -0.06535482 13.16248192 -0.06943035 14.17109299 -0.07362938 C19.3555963 -0.09449157 24.54007316 -0.10879095 29.72460938 -0.11816406 C35.06764591 -0.12921051 40.41026392 -0.16358972 45.75315285 -0.20333576 C49.87113188 -0.22954537 53.98901201 -0.23785991 58.10706711 -0.24144554 C60.07574658 -0.24630263 62.04442189 -0.25789148 64.01301956 -0.27648354 C66.77724068 -0.30096061 69.54039008 -0.29989406 72.3046875 -0.29296875 C73.10918335 -0.30577881 73.9136792 -0.31858887 74.74255371 -0.33178711 C83.0555717 -0.2563614 89.93133713 2.93714085 96.03662109 8.5324707 C100.69544793 13.6269281 102.6819472 19.1155051 102.63818359 25.94262695 C102.63568604 26.74474609 102.63318848 27.54686523 102.63061523 28.37329102 C102.62151123 29.38101562 102.61240723 30.38874023 102.60302734 31.42700195 C102.58240234 34.64450195 102.56177734 37.86200195 102.54052734 41.17700195 C92.64052734 41.17700195 82.74052734 41.17700195 72.54052734 41.17700195 C72.54052734 37.54700195 72.54052734 33.91700195 72.54052734 30.17700195 C48.78052734 30.17700195 25.02052734 30.17700195 0.54052734 30.17700195 C0.54052734 53.93700195 0.54052734 77.69700195 0.54052734 102.17700195 C24.30052734 102.17700195 48.06052734 102.17700195 72.54052734 102.17700195 C72.54052734 96.56700195 72.54052734 90.95700195 72.54052734 85.17700195 C63.30052734 85.17700195 54.06052734 85.17700195 44.54052734 85.17700195 C44.54052734 74.94700195 44.54052734 64.71700195 44.54052734 54.17700195 C63.68052734 54.17700195 82.82052734 54.17700195 102.54052734 54.17700195 C102.64365234 63.54075195 102.74677734 72.90450195 102.85302734 82.55200195 C102.89854736 85.48896973 102.94406738 88.4259375 102.9909668 91.4519043 C103.00558339 93.8055711 103.01832128 96.15925063 103.02880859 98.51293945 C103.05438843 99.714104 103.07996826 100.91526855 103.10632324 102.15283203 C103.11080258 110.87321116 101.61592518 117.78706408 95.55024719 124.32089233 C88.84696426 130.70012836 82.48632154 132.62920981 73.45922852 132.59692383 C72.13579689 132.60962814 72.13579689 132.60962814 70.78562927 132.62258911 C67.88476933 132.64588299 64.98444229 132.64698296 62.08349609 132.64575195 C60.05479218 132.65285894 58.02609027 132.66055872 55.99739075 132.66882324 C51.74991263 132.68225121 47.50262032 132.68384473 43.25512695 132.67797852 C37.83142359 132.67208904 32.40861741 132.70265116 26.98508739 132.7430954 C22.79583493 132.769039 18.60679646 132.77184367 14.41747475 132.76820374 C12.41892559 132.76988925 10.42036594 132.77947658 8.42189598 132.79734802 C-13.29964091 132.97020508 -13.29964091 132.97020508 -21.57527161 125.18713379 C-27.98132593 118.55802362 -29.91334375 112.15348056 -29.86352539 103.17163086 C-29.87038864 102.29749039 -29.87725189 101.42334991 -29.88432312 100.52272034 C-29.90253847 97.64950043 -29.89876073 94.7768294 -29.89306641 91.90356445 C-29.89763111 89.8948855 -29.90293755 87.8862081 -29.90895081 85.87753296 C-29.91787188 81.67292934 -29.91547062 77.46851575 -29.90551758 73.26391602 C-29.89403629 67.89178888 -29.91423187 62.5203199 -29.94343472 57.14827919 C-29.96183571 53.00110752 -29.96149635 48.85409238 -29.9557972 44.70689011 C-29.95564442 42.72706556 -29.96165231 40.7472301 -29.97408867 38.76744461 C-29.9890686 35.99160489 -29.97827013 33.21696584 -29.96118164 30.44116211 C-29.97084961 29.6335997 -29.98051758 28.82603729 -29.99047852 27.9940033 C-29.88126227 19.46534947 -26.57474809 12.15638238 -20.45947266 6.17700195 C-13.59313122 1.70843054 -8.19365612 0.02697874 0 0 Z " fill="#FFAD35" transform="translate(642.45947265625,309.822998046875)"/>
<path d="M0 0 C1.97671507 0.00103956 3.95343222 -0.00000495 5.93014526 -0.00302124 C10.05384574 -0.00284274 14.17675653 0.01782281 18.30029297 0.05419922 C23.5635276 0.09963165 28.82561422 0.10064127 34.08899117 0.08716393 C38.16419531 0.08045564 42.23914164 0.09379707 46.31429672 0.11342239 C48.2541964 0.12107282 50.19412488 0.12344526 52.13403702 0.1202507 C74.57912991 0.11406759 74.57912991 0.11406759 83.3671875 7.9765625 C91.00354939 16.38736675 91.64624642 25.20673318 91.60571289 36.13818359 C91.60585892 37.17293823 91.60600494 38.20769287 91.6061554 39.27380371 C91.6054606 42.68255738 91.59768847 46.09125591 91.58984375 49.5 C91.58797803 51.86797048 91.58655485 54.23594135 91.58555603 56.60391235 C91.58174297 62.82799348 91.57192301 69.05205116 91.56085205 75.27612305 C91.5506119 81.63069339 91.54605283 87.98526753 91.54101562 94.33984375 C91.53029966 106.80209527 91.51271265 119.26432327 91.4921875 131.7265625 C81.2621875 131.7265625 71.0321875 131.7265625 60.4921875 131.7265625 C60.4921875 117.8665625 60.4921875 104.0065625 60.4921875 89.7265625 C36.7321875 89.7265625 12.9721875 89.7265625 -11.5078125 89.7265625 C-11.5078125 103.5865625 -11.5078125 117.4465625 -11.5078125 131.7265625 C-21.4078125 131.7265625 -31.3078125 131.7265625 -41.5078125 131.7265625 C-41.5983492 117.8350995 -41.6716647 103.94383397 -41.71506119 90.05214214 C-41.7358942 83.60097437 -41.76413393 77.15001974 -41.80957031 70.69897461 C-41.85318028 64.4679182 -41.87698182 58.23706622 -41.88732147 52.00586891 C-41.89468562 49.63413083 -41.90906586 47.26240334 -41.93073273 44.89075279 C-41.95996739 41.55672813 -41.96376004 38.22353747 -41.96191406 34.8894043 C-41.97629517 33.91907257 -41.99067627 32.94874084 -42.00549316 31.94900513 C-41.95677225 23.76322235 -40.128773 14.16551933 -34.18942261 8.05844116 C-23.51680337 -0.39454908 -12.99721008 -0.1358818 0 0 Z M-11.5078125 29.7265625 C-11.5078125 39.9565625 -11.5078125 50.1865625 -11.5078125 60.7265625 C12.2521875 60.7265625 36.0121875 60.7265625 60.4921875 60.7265625 C60.4921875 50.4965625 60.4921875 40.2665625 60.4921875 29.7265625 C36.7321875 29.7265625 12.9721875 29.7265625 -11.5078125 29.7265625 Z " fill="#FFFFFF" transform="translate(943.5078125,160.2734375)"/>
<path d="M0 0 C9.9 0 19.8 0 30 0 C30 46.53 30 93.06 30 141 C15.459375 141.061875 0.91875 141.12375 -14.0625 141.1875 C-20.93654663 141.22846802 -20.93654663 141.22846802 -27.94946289 141.27026367 C-33.56726074 141.28381348 -33.56726074 141.28381348 -36.20140076 141.28633118 C-38.03194875 141.29092272 -39.86248796 141.30144242 -41.69297791 141.31672668 C-44.47394452 141.33877637 -47.25435909 141.34171502 -50.03540039 141.34057617 C-50.84399789 141.3513705 -51.65259539 141.36216482 -52.48569584 141.37328625 C-60.02490162 141.33212585 -66.13835504 138.86391815 -72 134 C-76.45587548 127.6701582 -79.10953083 122.54800798 -79.17700195 114.74365234 C-79.19625481 112.80551163 -79.19625481 112.80551163 -79.21589661 110.82821655 C-79.22406701 109.41412745 -79.23151016 108.00003399 -79.23828125 106.5859375 C-79.24235678 105.87177296 -79.2464323 105.15760841 -79.25063133 104.42180252 C-79.27148348 100.63781272 -79.28578585 96.85385902 -79.29516602 93.06982422 C-79.3061967 89.17953605 -79.34055942 85.28982519 -79.38033772 81.39974022 C-79.40661341 78.39351411 -79.41486773 75.38742289 -79.41844749 72.38109207 C-79.42328946 70.9482905 -79.4348346 69.51549399 -79.45348549 68.08280563 C-79.57352793 58.24597295 -78.51597598 51.52510512 -73.25 43.25 C-66.05702785 36.05702785 -58.02189746 33.94339672 -48.02124023 33.77294922 C-45.78366642 33.77326207 -43.54607501 33.78433331 -41.30859375 33.8046875 C-40.12274185 33.8075174 -38.93688995 33.81034729 -37.71510315 33.81326294 C-33.95579616 33.82439006 -30.19673407 33.84948102 -26.4375 33.875 C-23.87695658 33.88503944 -21.31640941 33.8941636 -18.75585938 33.90234375 C-12.50373772 33.92259682 -6.25214057 33.96176061 0 34 C0 22.78 0 11.56 0 0 Z M-49 64 C-49 79.84 -49 95.68 -49 112 C-32.83 112 -16.66 112 0 112 C0 96.16 0 80.32 0 64 C-16.17 64 -32.34 64 -49 64 Z " fill="#FFAD35" transform="translate(1185,301)"/>
<path d="M0 0 C10.79680012 -0.04527836 21.59353664 -0.08193203 32.39041042 -0.10362434 C37.404434 -0.11403828 42.41838895 -0.12815368 47.43237305 -0.15087891 C52.27586093 -0.1726927 57.11928301 -0.18458659 61.96281624 -0.18975449 C63.80587868 -0.19343496 65.64893773 -0.20062183 67.49197197 -0.21146011 C70.08383699 -0.22608864 72.67543398 -0.22797323 75.26733398 -0.22705078 C76.02043854 -0.23424133 76.77354309 -0.24143188 77.54946899 -0.24884033 C86.95656664 -0.21287731 93.98833642 1.59388918 101 8 C108.10503864 15.48909478 109.16189507 24.21697088 109.11352539 34.11669922 C109.11367142 34.90761459 109.11381744 35.69852997 109.1139679 36.51341248 C109.11327489 39.11053269 109.10551129 41.70757991 109.09765625 44.3046875 C109.0957899 46.1121517 109.09436702 47.91961641 109.09336853 49.7270813 C109.08956049 54.47157196 109.07974488 59.21603174 109.06866455 63.96051025 C109.05841355 68.80700259 109.05386302 73.65349994 109.04882812 78.5 C109.03812102 88.00001353 109.02106525 97.50000419 109 107 C97.56865802 107.11614541 86.13745775 107.20484287 74.70564461 107.25906086 C69.39664913 107.28509048 64.08805907 107.32036704 58.77929688 107.37719727 C53.65048139 107.43175397 48.52205444 107.46147039 43.39297104 107.47438622 C41.44183109 107.48358374 39.49071103 107.50154415 37.5397377 107.52865028 C16.27578868 107.81218009 16.27578868 107.81218009 7.88259888 100.03901672 C1.55114664 93.5982734 -0.34283282 86.71082469 -0.33947754 77.88867188 C-0.32412964 76.91478516 -0.30878174 75.94089844 -0.29296875 74.9375 C-0.28994751 74.02162109 -0.28692627 73.10574219 -0.28381348 72.16210938 C-0.2682398 68.77462325 -0.22635674 65.38729907 -0.1875 62 C-0.125625 54.41 -0.06375 46.82 0 39 C26.07 39 52.14 39 79 39 C79 36.03 79 33.06 79 30 C52.93 30 26.86 30 0 30 C0 20.1 0 10.2 0 0 Z M30 65 C30 69.29 30 73.58 30 78 C46.17 78 62.34 78 79 78 C79 73.71 79 69.42 79 65 C62.83 65 46.66 65 30 65 Z " fill="#FFAD35" transform="translate(1274,335)"/>
<path d="M0 0 C10.79680012 -0.04527836 21.59353664 -0.08193203 32.39041042 -0.10362434 C37.404434 -0.11403828 42.41838895 -0.12815368 47.43237305 -0.15087891 C52.27586093 -0.1726927 57.11928301 -0.18458659 61.96281624 -0.18975449 C63.80587868 -0.19343496 65.64893773 -0.20062183 67.49197197 -0.21146011 C70.08383699 -0.22608864 72.67543398 -0.22797323 75.26733398 -0.22705078 C76.02043854 -0.23424133 76.77354309 -0.24143188 77.54946899 -0.24884033 C86.95656664 -0.21287731 93.98833642 1.59388918 101 8 C108.10503864 15.48909478 109.16189507 24.21697088 109.11352539 34.11669922 C109.11367142 34.90761459 109.11381744 35.69852997 109.1139679 36.51341248 C109.11327489 39.11053269 109.10551129 41.70757991 109.09765625 44.3046875 C109.0957899 46.1121517 109.09436702 47.91961641 109.09336853 49.7270813 C109.08956049 54.47157196 109.07974488 59.21603174 109.06866455 63.96051025 C109.05841355 68.80700259 109.05386302 73.65349994 109.04882812 78.5 C109.03812102 88.00001353 109.02106525 97.50000419 109 107 C97.56865802 107.11614541 86.13745775 107.20484287 74.70564461 107.25906086 C69.39664913 107.28509048 64.08805907 107.32036704 58.77929688 107.37719727 C53.65048139 107.43175397 48.52205444 107.46147039 43.39297104 107.47438622 C41.44183109 107.48358374 39.49071103 107.50154415 37.5397377 107.52865028 C16.27578868 107.81218009 16.27578868 107.81218009 7.88259888 100.03901672 C1.55114664 93.5982734 -0.34283282 86.71082469 -0.33947754 77.88867188 C-0.32412964 76.91478516 -0.30878174 75.94089844 -0.29296875 74.9375 C-0.28994751 74.02162109 -0.28692627 73.10574219 -0.28381348 72.16210938 C-0.2682398 68.77462325 -0.22635674 65.38729907 -0.1875 62 C-0.125625 54.41 -0.06375 46.82 0 39 C26.07 39 52.14 39 79 39 C79 36.03 79 33.06 79 30 C52.93 30 26.86 30 0 30 C0 20.1 0 10.2 0 0 Z M30 65 C30 69.29 30 73.58 30 78 C46.17 78 62.34 78 79 78 C79 73.71 79 69.42 79 65 C62.83 65 46.66 65 30 65 Z " fill="#FFAD35" transform="translate(889,335)"/>
<path d="M0 0 C0.93809509 -0.00137466 1.87619019 -0.00274933 2.8427124 -0.00416565 C4.38343163 0.00122726 4.38343163 0.00122726 5.95527649 0.00672913 C7.57990311 0.00651009 7.57990311 0.00651009 9.23735046 0.00628662 C12.82474252 0.00698444 16.41208294 0.0147708 19.99946594 0.02259827 C22.48382539 0.02446291 24.96818521 0.02588659 27.45254517 0.02688599 C33.32796322 0.03031672 39.20336215 0.03820181 45.07877237 0.04823548 C52.42407869 0.06050718 59.76938609 0.0658799 67.11470032 0.07142639 C80.21822724 0.0821573 93.32173191 0.09975119 106.42524719 0.12025452 C106.42524719 9.69025452 106.42524719 19.26025452 106.42524719 29.12025452 C72.76524719 29.12025452 39.10524719 29.12025452 4.42524719 29.12025452 C4.42524719 53.21025452 4.42524719 77.30025452 4.42524719 102.12025452 C38.08524719 102.12025452 71.74524719 102.12025452 106.42524719 102.12025452 C106.42524719 111.69025452 106.42524719 121.26025452 106.42524719 131.12025452 C91.99498362 131.23336618 77.56501612 131.32503539 63.13440895 131.37931538 C56.4331666 131.40503599 49.73226392 131.4406978 43.03120422 131.49745178 C36.5602391 131.55191193 30.08958106 131.58170506 23.61840439 131.59464073 C21.15371748 131.60385533 18.68904675 131.62184929 16.22449112 131.6489048 C12.7632128 131.68537947 9.30319172 131.69019192 5.8417511 131.68788147 C4.32475616 131.71484604 4.32475616 131.71484604 2.77711487 131.74235535 C-5.1849485 131.68511866 -11.79247602 129.61666523 -17.72742271 124.13028431 C-24.042205 117.46099248 -26.03071552 111.16260851 -25.9629364 102.19081116 C-25.97082184 100.89182137 -25.97082184 100.89182137 -25.97886658 99.56658936 C-25.9920054 96.72100973 -25.98334945 93.8759955 -25.97319031 91.03041077 C-25.97521298 89.04175713 -25.97812604 87.05310423 -25.98188782 85.06445312 C-25.98630305 80.90272438 -25.97990655 76.74118922 -25.96586609 72.57948303 C-25.94878594 67.25891462 -25.95861318 61.93880065 -25.97658348 56.61824894 C-25.98745245 52.51315929 -25.9839605 48.40817638 -25.9762001 44.30308342 C-25.97420612 42.34197879 -25.97662904 40.38086431 -25.98363876 38.41977119 C-25.99130331 35.67261926 -25.97957882 32.92619082 -25.9629364 30.17909241 C-25.96900909 29.37728546 -25.97508179 28.57547852 -25.9813385 27.74937439 C-25.88800928 19.38502085 -23.25022873 13.04489304 -17.54740906 6.88197327 C-12.63957265 2.49893521 -6.5676905 -0.00742112 0 0 Z " fill="#FFFFFF" transform="translate(1381.5747528076172,160.87974548339844)"/>
<path d="M0 0 C40.59 0 81.18 0 123 0 C123 9.57 123 19.14 123 29 C92.64 29 62.28 29 31 29 C31 36.26 31 43.52 31 51 C55.42 51 79.84 51 105 51 C105 60.57 105 70.14 105 80 C80.58 80 56.16 80 31 80 C31 96.83 31 113.66 31 131 C20.77 131 10.54 131 0 131 C0 87.77 0 44.54 0 0 Z " fill="#FFFFFF" transform="translate(1185,161)"/>
<path d="M0 0 C40.59 0 81.18 0 123 0 C123 9.57 123 19.14 123 29 C92.64 29 62.28 29 31 29 C31 36.26 31 43.52 31 51 C55.42 51 79.84 51 105 51 C105 60.57 105 70.14 105 80 C80.58 80 56.16 80 31 80 C31 96.83 31 113.66 31 131 C20.77 131 10.54 131 0 131 C0 87.77 0 44.54 0 0 Z " fill="#FFFFFF" transform="translate(1053,161)"/>
<path d="M0 0 C0.80338303 -0.0049649 1.60676605 -0.00992981 2.43449402 -0.01504517 C5.10811202 -0.02971719 7.78167051 -0.03648044 10.45532227 -0.04199219 C12.31323753 -0.04774366 14.17115277 -0.05350139 16.02906799 -0.05926514 C19.93572263 -0.06979226 23.8423566 -0.07562234 27.74902344 -0.07910156 C32.73547218 -0.08456129 37.72164438 -0.10852764 42.70800686 -0.13707352 C46.55238106 -0.15578463 50.39669015 -0.1609102 54.24110603 -0.16243744 C56.07776447 -0.16545018 57.91442215 -0.17343173 59.75103569 -0.18662262 C82.92479053 -0.34104884 82.92479053 -0.34104884 91.73266602 6.50488281 C98.59356388 13.60005524 100.49169487 20.87964111 100.44775391 30.41796875 C100.44789993 31.24760635 100.44804596 32.07724396 100.44819641 32.93202209 C100.44750064 35.66987741 100.43972391 38.4076644 100.43188477 41.14550781 C100.4300194 43.0455115 100.42859605 44.94551568 100.42759705 46.84552002 C100.42378124 51.84321422 100.41395893 56.8408793 100.40289307 61.83856201 C100.39265883 66.93957119 100.38809511 72.04058508 100.38305664 77.14160156 C100.37233584 87.14812682 100.3547466 97.15462284 100.33422852 107.16113281 C90.43422852 107.16113281 80.53422852 107.16113281 70.33422852 107.16113281 C70.33422852 81.75113281 70.33422852 56.34113281 70.33422852 30.16113281 C54.16422852 30.16113281 37.99422852 30.16113281 21.33422852 30.16113281 C21.33422852 55.57113281 21.33422852 80.98113281 21.33422852 107.16113281 C11.43422852 107.16113281 1.53422852 107.16113281 -8.66577148 107.16113281 C-8.68831984 93.35772043 -8.70668502 79.55432019 -8.71758366 65.75089359 C-8.72281315 59.34214153 -8.72991199 52.93340267 -8.74121094 46.5246582 C-8.75203747 40.3455384 -8.75804782 34.16643133 -8.76064873 27.98730278 C-8.7625034 25.62407671 -8.76612481 23.26085137 -8.77150154 20.89763069 C-8.77870887 17.60011385 -8.77976256 14.30265034 -8.77929688 11.00512695 C-8.78289215 10.01754395 -8.78648743 9.02996094 -8.79019165 8.01245117 C-8.78881699 7.11917618 -8.78744232 6.22590118 -8.786026 5.30555725 C-8.78694779 4.52479859 -8.78786959 3.74403994 -8.78881931 2.93962193 C-8.4811526 -1.50728219 -3.40461098 0.00496749 0 0 Z " fill="#FFAD35" transform="translate(1406.665771484375,334.8388671875)"/>
<path d="M0 0 C9.9 0 19.8 0 30 0 C30 25.74 30 51.48 30 78 C46.17 78 62.34 78 79 78 C79 52.26 79 26.52 79 0 C88.9 0 98.8 0 109 0 C109.06795136 10.77952525 109.12291717 21.55890673 109.15543652 32.33859825 C109.17104924 37.34479141 109.19220679 42.3508296 109.22631836 47.35693359 C109.25906909 52.19395075 109.27688601 57.03081946 109.28463173 61.867939 C109.29014714 63.70739705 109.30091701 65.54684757 109.31719017 67.38624191 C109.51839116 91.08488206 109.51839116 91.08488206 102.375 98.875 C101.76398438 99.57367188 101.15296875 100.27234375 100.5234375 100.9921875 C92.25618843 107.57015348 83.52755988 107.60955879 73.37890625 107.56640625 C71.86872477 107.57165246 70.35854657 107.57793256 68.84837341 107.58518982 C65.69555148 107.59555069 62.5431821 107.59109563 59.39038086 107.57641602 C55.37454093 107.55923693 51.36013314 107.58273349 47.34445286 107.61790562 C44.22916913 107.63999616 41.11422195 107.63841025 37.9988842 107.6301403 C36.51948412 107.62932708 35.04005773 107.63606861 33.56073189 107.65091133 C23.91445737 107.73287881 15.46893344 107.11343934 8.10328674 100.22657776 C1.29470671 92.87318725 -0.15917616 85.46653192 -0.11352539 75.72143555 C-0.11367142 74.90140549 -0.11381744 74.08137543 -0.1139679 73.23649597 C-0.1132734 70.53654296 -0.1055027 67.83665965 -0.09765625 65.13671875 C-0.09579043 63.26056455 -0.0943673 61.38440987 -0.09336853 59.508255 C-0.0895563 54.577979 -0.07973707 49.6477326 -0.06866455 44.71746826 C-0.05842259 39.68339437 -0.05386494 34.64931569 -0.04882812 29.61523438 C-0.03811363 19.7434745 -0.02052732 9.87174435 0 0 Z " fill="#FFAD35" transform="translate(763,335)"/>
<path d="M0 0 C43.89 0 87.78 0 133 0 C133 9.57 133 19.14 133 29 C116.17 29 99.34 29 82 29 C82 62.66 82 96.32 82 131 C71.77 131 61.54 131 51 131 C51 97.34 51 63.68 51 29 C34.17 29 17.34 29 0 29 C0 19.43 0 9.86 0 0 Z " fill="#FFFFFF" transform="translate(607,161)"/>
<path d="M0 0 C3.20021046 3.02387932 5.25419343 6.56212237 7.5 10.3125 C12.43862751 18.37372061 17.97501832 25.72730362 24 33 C24.4552002 33.55284668 24.91040039 34.10569336 25.37939453 34.67529297 C31.99534656 42.68729313 38.91224796 50.40331622 46 58 C46.59925293 58.64437012 47.19850586 59.28874023 47.81591797 59.95263672 C60.69067997 73.93178536 60.69067997 73.93178536 74.55859375 86.90234375 C76.49968148 88.57012632 78.42650956 90.25086122 80.34765625 91.94140625 C87.56215068 98.27204662 94.89009679 104.38369087 102.48046875 110.2578125 C104.88336663 112.11876882 107.25728359 114.00970445 109.61328125 115.9296875 C118.78461182 123.40059195 128.22936305 130.3336907 138 137 C138.98548828 137.67337402 139.97097656 138.34674805 140.98632812 139.04052734 C162.03632194 153.37101038 183.5237999 166.75965462 206.03588867 178.70239258 C211.50446356 181.60595561 216.79154605 184.65039357 222 188 C221.37369062 190.98640613 220.40782985 193.31182455 218.8828125 195.94921875 C218.44557861 196.7074292 218.00834473 197.46563965 217.55786133 198.24682617 C216.84859497 199.45495972 216.84859497 199.45495972 216.125 200.6875 C215.3992981 201.93333862 215.3992981 201.93333862 214.65893555 203.2043457 C209.70125748 211.64031088 204.40012009 219.84237177 199 228 C194.69226536 227.14007122 192.10538447 224.83912525 188.875 222 C188.30241455 221.5059668 187.7298291 221.01193359 187.13989258 220.50292969 C182.79666563 216.7409367 178.51519279 212.90993355 174.26171875 209.046875 C172.19326125 207.1749031 170.10439086 205.3313661 168 203.5 C164.15516046 200.14927639 160.36253684 196.74295889 156.578125 193.32421875 C154.86454583 191.77940117 153.14580757 190.24028643 151.421875 188.70703125 C146.76865775 184.56052938 142.28186998 180.32015021 137.91015625 175.87890625 C136.10355504 174.10186089 134.24302844 172.45284462 132.3125 170.8125 C124.32956197 163.93392098 116.87685 156.32693342 110.0703125 148.2890625 C107.0055466 144.90047228 103.74551303 141.71461828 100.5 138.5 C96.10710024 134.14471885 91.78502856 129.8051688 87.79296875 125.07421875 C85.81740175 122.78875889 83.76732731 120.58572847 81.70507812 118.37866211 C76.63289646 112.94989165 71.80254663 107.41382161 67.1484375 101.6171875 C64.98488228 98.98158387 62.7361044 96.45576625 60.4375 93.9375 C56.06493588 89.12090613 51.98800681 84.13813164 48 79 C47.52014648 78.38205566 47.04029297 77.76411133 46.54589844 77.12744141 C42.66014285 72.11282953 38.81397126 67.0694134 35 62 C34.55366211 61.40703125 34.10732422 60.8140625 33.64746094 60.203125 C0 15.16445954 0 15.16445954 0 0 Z " fill="#52738A" transform="translate(315,238)"/>
<path d="M0 0 C1 3 1 3 -0.30078125 6.16015625 C-0.95974139 7.46685875 -1.63130658 8.76724889 -2.3125 10.0625 C-2.67496826 10.76568359 -3.03743652 11.46886719 -3.41088867 12.19335938 C-4.59347108 14.4697741 -5.79461558 16.73558556 -7 19 C-7.5878125 20.11544189 -7.5878125 20.11544189 -8.1875 21.25341797 C-14.07853999 32.37905393 -20.63283313 42.7985855 -28 53 C-28.82854492 54.15532227 -28.82854492 54.15532227 -29.67382812 55.33398438 C-36.29113217 64.53906095 -43.055349 73.52712779 -50.48828125 82.08984375 C-52.88720115 84.86930771 -55.20013899 87.70090303 -57.5 90.5625 C-61.14279858 95.04444325 -64.97737747 99.29242295 -68.91186523 103.51538086 C-71.93753872 106.78221972 -74.78210065 110.14337118 -77.5625 113.625 C-81.24819337 118.20739158 -85.20756868 122.34431265 -89.4453125 126.41796875 C-91.43536883 128.42932538 -93.2661298 130.44894234 -95.10131836 132.59472656 C-99.18749044 137.28162464 -103.53258398 141.6766469 -107.93359375 146.06640625 C-108.77036148 146.90413071 -109.60712921 147.74185516 -110.46925354 148.60496521 C-112.22868104 150.36506935 -113.98935653 152.12392677 -115.7512207 153.8815918 C-118.42969411 156.55470972 -121.10278873 159.23312251 -123.77539062 161.91210938 C-125.49447115 163.63052903 -127.21386189 165.34863842 -128.93359375 167.06640625 C-129.72342148 167.85825821 -130.51324921 168.65011017 -131.32701111 169.46595764 C-135.54366733 173.66506981 -139.83890378 177.70474695 -144.35931396 181.57606506 C-146.28484228 183.24721175 -148.05805795 185.02605639 -149.8125 186.875 C-153.63383781 190.75581389 -157.76722143 194.11063407 -162.01171875 197.515625 C-165.28512315 200.23704356 -168.39573548 203.08946509 -171.5 206 C-176.39165444 210.58492663 -181.40702743 214.89159471 -186.66015625 219.0625 C-189.04963281 220.96027007 -189.04963281 220.96027007 -191.12109375 223.25 C-193 225 -193 225 -196 225 C-197.68237305 222.92724609 -197.68237305 222.92724609 -199.51171875 220.0234375 C-200.18396484 218.96568115 -200.85621094 217.9079248 -201.54882812 216.81811523 C-202.26216222 215.67068574 -202.97504538 214.52297579 -203.6875 213.375 C-204.41151212 212.22496557 -205.13612151 211.07530695 -205.86132812 209.92602539 C-210.7956715 202.07509754 -215.56948239 194.14690573 -220 186 C-217.56369279 182.34553919 -214.84232076 181.24226106 -211 179.4375 C-190.51545366 169.49924517 -170.88405732 157.76085367 -151.88378906 145.24023438 C-150.22602914 144.14881131 -148.56266375 143.06591246 -146.8984375 141.984375 C-108.79094235 116.99929553 -69.45746926 86.83082245 -39.75390625 52.02734375 C-38.53774821 50.62158423 -37.29323499 49.24005267 -36.02734375 47.87890625 C-22.50024518 33.32070398 -10.82737927 16.63719253 0 0 Z " fill="#52738A" transform="translate(284,241)"/>
<path d="M0 0 C1.22081268 0.00007553 2.44162537 0.00015106 3.69943237 0.00022888 C5.0027652 0.00539017 6.30609802 0.01055145 7.64892578 0.01586914 C9.0079849 0.01773638 10.3670447 0.01915884 11.72610474 0.02015686 C15.28692514 0.02395791 18.84770415 0.03376737 22.4085083 0.04486084 C26.0485376 0.05512704 29.68857365 0.0596656 33.32861328 0.06469727 C40.45883845 0.075392 47.58903565 0.09243917 54.71923828 0.11352539 C59.19385807 9.06276496 55.71923828 20.10797138 55.71923828 30.11352539 C36.90923828 30.11352539 18.09923828 30.11352539 -1.28076172 30.11352539 C-1.28076172 55.52352539 -1.28076172 80.93352539 -1.28076172 107.11352539 C-11.18076172 107.11352539 -21.08076172 107.11352539 -31.28076172 107.11352539 C-31.37135817 96.20362202 -31.44464776 85.29397109 -31.48801041 74.38377571 C-31.50882892 69.31698687 -31.53704122 64.25047016 -31.58251953 59.18383789 C-31.62618256 54.28845442 -31.64994191 49.39333167 -31.66027069 44.4977684 C-31.66762548 42.63596369 -31.68198725 40.77417223 -31.70368195 38.9124794 C-31.94784532 17.07918333 -31.94784532 17.07918333 -24.03076172 8.23852539 C-16.89809179 1.76261094 -9.51325874 -0.01973705 0 0 Z " fill="#FFAD35" transform="translate(1041.28076171875,334.886474609375)"/>
<path d="M0 0 C3 1 3 1 4.1315918 3.01855469 C4.66006714 4.33194824 4.66006714 4.33194824 5.19921875 5.671875 C5.60027832 6.64092773 6.00133789 7.60998047 6.41455078 8.60839844 C7.04466064 10.16349121 7.04466064 10.16349121 7.6875 11.75 C11.08073612 19.88723882 14.66317756 27.37165378 19.6015625 34.671875 C21 37 21 37 21 40 C17.535 40.495 17.535 40.495 14 41 C16.93091925 48.61768874 20.3267749 55.57155969 24.64453125 62.50390625 C26 65 26 65 26 68 C24.54119891 67.85892253 23.08296449 67.71197585 21.625 67.5625 C20.40683594 67.44068359 20.40683594 67.44068359 19.1640625 67.31640625 C17 67 17 67 15 66 C15.90477737 67.46573934 16.82434141 68.92235756 17.75 70.375 C18.26046875 71.18710937 18.7709375 71.99921875 19.296875 72.8359375 C21.0673335 75.08555679 22.36907419 75.95906848 25 77 C24.50628906 77.67546875 24.01257813 78.3509375 23.50390625 79.046875 C22.86324219 79.93890625 22.22257812 80.8309375 21.5625 81.75 C20.92441406 82.63171875 20.28632813 83.5134375 19.62890625 84.421875 C18.1724919 86.72699125 17.44068179 88.34349572 17 91 C18.7290774 91.02725341 20.45828176 91.04650987 22.1875 91.0625 C23.15042969 91.07410156 24.11335938 91.08570313 25.10546875 91.09765625 C27.85576513 91.00486622 30.32479591 90.62111685 33 90 C29.15753568 98.15704031 24.95429803 106.01963595 20.3125 113.75 C19.84932373 114.53616699 19.38614746 115.32233398 18.90893555 116.13232422 C18.46074463 116.86725098 18.01255371 117.60217773 17.55078125 118.359375 C17.15544189 119.01389648 16.76010254 119.66841797 16.3527832 120.34277344 C14.73559689 122.32390693 13.39998098 123.13980013 11 124 C-6.91557505 118.3589443 -24.01429947 104.00789303 -39 93 C-41.32907535 91.32728436 -43.66424148 89.66338748 -46 88 C-43.525 82.06 -43.525 82.06 -41 76 C-42.65 75.67 -44.3 75.34 -46 75 C-44.55598522 71.08463653 -42.70384424 67.64061715 -40.5625 64.0625 C-38.20152542 60.11054471 -36.01705 56.13896193 -34 52 C-30.4242565 55.30523352 -28.54761149 59.22940421 -26.3125 63.5 C-25.89677734 64.27214844 -25.48105469 65.04429687 -25.05273438 65.83984375 C-24.66021484 66.58363281 -24.26769531 67.32742188 -23.86328125 68.09375 C-23.32634644 69.10985352 -23.32634644 69.10985352 -22.77856445 70.14648438 C-22 72 -22 72 -22 75 C-23.98 75.495 -23.98 75.495 -26 76 C-25.34 77.65 -24.68 79.3 -24 81 C-19.4434473 77.28725335 -17.42599607 72.20992598 -15 67 C-17.97 67 -20.94 67 -24 67 C-23.39368083 63.03850535 -22.15202596 60.01276471 -20.27734375 56.48046875 C-19.73916016 55.45888672 -19.20097656 54.43730469 -18.64648438 53.38476562 C-18.08251953 52.32966797 -17.51855469 51.27457031 -16.9375 50.1875 C-16.36966797 49.11306641 -15.80183594 48.03863281 -15.21679688 46.93164062 C-13.81685582 44.28469325 -12.41109888 41.64101101 -11 39 C-11.99 39.495 -11.99 39.495 -13 40 C-15.3329866 40.04022391 -17.66706666 40.04320247 -20 40 C-19.36743545 36.81659875 -18.25551857 34.5314804 -16.5234375 31.796875 C-15.76885254 30.58402832 -15.76885254 30.58402832 -14.99902344 29.34667969 C-14.4630957 28.48977539 -13.92716797 27.63287109 -13.375 26.75 C-8.06847909 18.11860715 -3.73203382 9.40893034 0 0 Z " fill="#08649D" transform="translate(419,201)"/>
<path d="M0 0 C0.66 0 1.32 0 2 0 C2.21503174 0.51159668 2.43006348 1.02319336 2.65161133 1.55029297 C7.2354287 12.3489055 12.2075381 22.54937153 18.54418945 32.43701172 C19.22034302 33.49299561 19.22034302 33.49299561 19.91015625 34.5703125 C20.31371338 35.18664551 20.71727051 35.80297852 21.13305664 36.43798828 C22 38 22 38 22 40 C15.25 40.125 15.25 40.125 13 39 C14.78839151 42.60580086 16.58127293 46.20935076 18.375 49.8125 C18.88289063 50.83666016 19.39078125 51.86082031 19.9140625 52.91601562 C20.64882812 54.39038086 20.64882812 54.39038086 21.3984375 55.89453125 C21.84880371 56.80050049 22.29916992 57.70646973 22.76318359 58.63989258 C24.03259666 61.16275921 24.03259666 61.16275921 26 64 C29.465 58.06 29.465 58.06 33 52 C35.44361249 54.44361249 36.55081743 55.72448105 38.0078125 58.65234375 C38.35457031 59.34650391 38.70132813 60.04066406 39.05859375 60.75585938 C39.41050781 61.47580078 39.76242188 62.19574219 40.125 62.9375 C40.66447266 64.01161133 40.66447266 64.01161133 41.21484375 65.10742188 C42.84279498 68.39685892 44.20180247 71.40113562 45 75 C43.35 75 41.7 75 40 75 C40.433125 75.84304688 40.86625 76.68609375 41.3125 77.5546875 C41.869375 78.65039062 42.42625 79.74609375 43 80.875 C43.556875 81.96554687 44.11375 83.05609375 44.6875 84.1796875 C46 87 46 87 46 89 C44.50976562 90.26171875 44.50976562 90.26171875 42.40625 91.6875 C41.6313623 92.21625732 40.85647461 92.74501465 40.05810547 93.28979492 C39.21393066 93.8541626 38.36975586 94.41853027 37.5 95 C36.63648926 95.58305908 35.77297852 96.16611816 34.88330078 96.7668457 C27.03728165 102.03525792 19.08405273 107.10590211 11 112 C10.25878906 112.45068848 9.51757812 112.90137695 8.75390625 113.36572266 C6.46591898 114.75230853 4.1718743 116.12819344 1.875 117.5 C1.17616699 117.92176514 0.47733398 118.34353027 -0.24267578 118.77807617 C-4.07328115 121.04144695 -7.68975674 122.76466548 -12 124 C-14.04489571 120.56441154 -16.08529688 117.12617341 -18.125 113.6875 C-18.69476563 112.73037109 -19.26453125 111.77324219 -19.8515625 110.78710938 C-22.77759992 105.84942123 -25.67041875 100.89260342 -28.4921875 95.89453125 C-28.99862793 95.0022583 -29.50506836 94.10998535 -30.02685547 93.19067383 C-30.34799316 92.46775146 -30.66913086 91.7448291 -31 91 C-30.505 90.01 -30.505 90.01 -30 89 C-29.45859375 89.32742188 -28.9171875 89.65484375 -28.359375 89.9921875 C-25.49280933 91.21664767 -23.3547013 91.19892146 -20.25 91.125 C-19.26515625 91.10695313 -18.2803125 91.08890625 -17.265625 91.0703125 C-16.51796875 91.04710937 -15.7703125 91.02390625 -15 91 C-16.54589723 86.86075182 -18.54978025 83.43775991 -20.9765625 79.76953125 C-22 78 -22 78 -22 76 C-20.576875 75.690625 -20.576875 75.690625 -19.125 75.375 C-15.72853396 74.30151489 -15.72853396 74.30151489 -14.6875 71 C-14.460625 70.01 -14.23375 69.02 -14 68 C-13.67 67.34 -13.34 66.68 -13 66 C-14.485 66.99 -14.485 66.99 -16 68 C-18.26171875 68.1953125 -18.26171875 68.1953125 -20.6875 68.125 C-21.49574219 68.10695313 -22.30398437 68.08890625 -23.13671875 68.0703125 C-23.75160156 68.04710937 -24.36648437 68.02390625 -25 68 C-23.40513813 63.67817223 -21.2759009 59.71421037 -19.0625 55.6875 C-16.27948797 50.56053731 -13.81613441 45.56191164 -12 40 C-14.64 40 -17.28 40 -20 40 C-18.40552154 35.59620234 -16.15699967 31.65928664 -13.8125 27.625 C-9.40774737 19.93611957 -5.65850123 12.06694453 -2 4 C-1.34197711 2.66237969 -0.67976997 1.3267008 0 0 Z " fill="#08649D" transform="translate(182,201)"/>
<path d="M0 0 C9.9 0 19.8 0 30 0 C32.71289062 35.26757812 32.71289062 35.26757812 32.88018417 37.44265366 C32.99126866 38.88657913 33.10240601 40.33050055 33.21359634 41.77441788 C33.49046257 45.37065667 33.76640995 48.96696143 34.04046631 52.56341553 C34.54374949 59.15640525 35.05764627 65.74783085 35.61035156 72.33691406 C35.70418121 73.48000031 35.79801086 74.62308655 35.89468384 75.80081177 C36.06491516 77.86694215 36.24017848 79.93266961 36.42245483 81.99777222 C37.13440243 90.74435656 37 99.11805868 37 108 C22.48 108 7.96 108 -7 108 C-7 99.35982252 -6.92311642 91.04554301 -6.1953125 82.48828125 C-6.11186081 81.44755463 -6.02840912 80.406828 -5.94242859 79.33456421 C-5.76531374 77.1275985 -5.58595088 74.92081216 -5.40444946 72.71420288 C-4.92994244 66.93808903 -4.47318647 61.16059718 -4.01953125 55.3828125 C-3.92961411 54.23820053 -3.83969696 53.09358856 -3.74705505 51.91429138 C-2.85696754 40.42562725 -2.17704822 28.9291797 -1.59619141 17.42114258 C-1.52964355 16.13103271 -1.4630957 14.84092285 -1.39453125 13.51171875 C-1.34143799 12.41303467 -1.28834473 11.31435059 -1.23364258 10.18237305 C-0.98330528 6.77260642 -0.48351168 3.38458176 0 0 Z " fill="#F5CC5D" transform="translate(286,434)"/>
<path d="M0 0 C9.9 0 19.8 0 30 0 C30 43.23 30 86.46 30 131 C20.1 131 10.2 131 0 131 C0 87.77 0 44.54 0 0 Z " fill="#FFFFFF" transform="translate(1316,161)"/>
<path d="M0 0 C9.9 0 19.8 0 30 0 C30 35.31 30 70.62 30 107 C20.1 107 10.2 107 0 107 C0 71.69 0 36.38 0 0 Z " fill="#FFAD35" transform="translate(1232,335)"/>
<path d="M0 0 C6.27 0 12.54 0 19 0 C20.85900573 16.07818646 22.39530841 31.79235537 22 48 C14.08 48 6.16 48 -2 48 C-2.24400642 31.89557596 -1.29508342 16.04978383 0 0 Z " fill="#F3CB5D" transform="translate(291,349)"/>
<path d="M0 0 C9.9 0 19.8 0 30 0 C30 9.9 30 19.8 30 30 C20.1 30 10.2 30 0 30 C0 20.1 0 10.2 0 0 Z " fill="#FFAD36" transform="translate(1232,301)"/>
<path d="M0 0 C2.22053029 2.05448353 3.66213753 3.94818116 5.0078125 6.65234375 C5.35457031 7.34650391 5.70132813 8.04066406 6.05859375 8.75585938 C6.41050781 9.47580078 6.76242188 10.19574219 7.125 10.9375 C7.48464844 11.65357422 7.84429687 12.36964844 8.21484375 13.10742188 C9.84279498 16.39685892 11.20180247 19.40113562 12 23 C10.35 23 8.7 23 7 23 C7.433125 23.84304688 7.86625 24.68609375 8.3125 25.5546875 C8.869375 26.65039062 9.42625 27.74609375 10 28.875 C10.556875 29.96554687 11.11375 31.05609375 11.6875 32.1796875 C13 35 13 35 13 37 C10.953125 38.76171875 10.953125 38.76171875 8.25 40.6875 C7.36828125 41.33074219 6.4865625 41.97398437 5.578125 42.63671875 C3 44 3 44 0.87890625 43.99609375 C-7.01931858 39.80888516 -11.64038906 25.07736248 -15 17 C-15 16.34 -15 15.68 -15 15 C-12.69 15 -10.38 15 -8 15 C-7.67 14.01 -7.34 13.02 -7 12 C-5.83995512 9.92193398 -4.64898171 7.86100544 -3.4375 5.8125 C-2.47650391 4.18248047 -2.47650391 4.18248047 -1.49609375 2.51953125 C-1.00238281 1.68808594 -0.50867188 0.85664063 0 0 Z " fill="#0D75AE" transform="translate(215,253)"/>
<path d="M0 0 C3.5757435 3.30523352 5.45238851 7.22940421 7.6875 11.5 C8.10322266 12.27214844 8.51894531 13.04429687 8.94726562 13.83984375 C9.33978516 14.58363281 9.73230469 15.32742188 10.13671875 16.09375 C10.49467529 16.77115234 10.85263184 17.44855469 11.22143555 18.14648438 C12 20 12 20 12 23 C10.68 23.33 9.36 23.66 8 24 C9.11854586 27.72614153 9.11854586 27.72614153 12 30 C11.34 30 10.68 30 10 30 C9.89300781 30.56332031 9.78601563 31.12664062 9.67578125 31.70703125 C8.88639811 34.38545843 7.71284663 36.35120959 6.1875 38.6875 C5.68605469 39.47511719 5.18460937 40.26273437 4.66796875 41.07421875 C3 43 3 43 1.16015625 44.015625 C-2.27683286 43.99076432 -4.08441006 42.12515888 -6.75 40.0625 C-7.73484375 39.31097656 -8.7196875 38.55945313 -9.734375 37.78515625 C-10.48203125 37.19605469 -11.2296875 36.60695313 -12 36 C-10.35 32.04 -8.7 28.08 -7 24 C-8.65 23.67 -10.3 23.34 -12 23 C-10.55598522 19.08463653 -8.70384424 15.64061715 -6.5625 12.0625 C-4.20152542 8.11054471 -2.01705 4.13896193 0 0 Z " fill="#0E75AE" transform="translate(385,253)"/>
<path d="M0 0 C0 0.99 0 1.98 0 3 C-0.78947021 3.3717334 -1.57894043 3.7434668 -2.39233398 4.12646484 C-22.18419522 13.47706391 -41.24742778 23.06923912 -59 36 C-59.95737061 36.69246826 -59.95737061 36.69246826 -60.93408203 37.39892578 C-69.7808053 43.82154093 -78.02160855 50.5186231 -86 58 C-87.36945824 59.19388667 -88.74405071 60.38192374 -90.125 61.5625 C-97.42271459 67.93871092 -103.83640959 74.82512616 -109.88671875 82.390625 C-111.6773938 84.60166185 -113.52090098 86.71187156 -115.4375 88.8125 C-120.45068048 94.49564469 -124.70149578 100.77142404 -129 107 C-129.42748535 107.61858887 -129.8549707 108.23717773 -130.29541016 108.87451172 C-138.37624603 120.62929119 -145.66724046 132.59307672 -151.49609375 145.6484375 C-152.56350353 148.02723644 -153.65273346 150.37940292 -154.78515625 152.7265625 C-158.44565193 160.33853126 -161.56734622 167.88611753 -164 176 C-164.66 175.67 -165.32 175.34 -166 175 C-164.55686368 168.27593628 -162.15929642 162.27629649 -159.375 156 C-158.70513062 154.47922852 -158.70513062 154.47922852 -158.02172852 152.92773438 C-145.84244399 125.49883045 -130.44307922 100.59831761 -110.14453125 78.36328125 C-108.26548887 76.2925697 -106.43985594 74.18921663 -104.625 72.0625 C-97.70171432 64.12722592 -90.09275985 56.73296497 -82 50 C-81.45778809 49.54399414 -80.91557617 49.08798828 -80.35693359 48.61816406 C-66.68771314 37.15178967 -52.33092626 27.11925786 -37 18 C-35.97390625 17.36707031 -34.9478125 16.73414062 -33.890625 16.08203125 C-23.0981111 9.61426873 -11.5862345 4.85130522 0 0 Z " fill="#001036" transform="translate(190,31)"/>
<path d="M0 0 C1.50046875 0.00386719 1.50046875 0.00386719 3.03125 0.0078125 C4.0315625 0.00523437 5.031875 0.00265625 6.0625 0 C8.53125 0.1328125 8.53125 0.1328125 9.53125 1.1328125 C10.74513386 11.09864911 10.61912892 21.11461508 10.53125 31.1328125 C5.58125 31.1328125 0.63125 31.1328125 -4.46875 31.1328125 C-4.64705084 10.80651691 -4.64705084 10.80651691 -3.46875 1.1328125 C-2.46875 0.1328125 -2.46875 0.1328125 0 0 Z " fill="#E9C65D" transform="translate(297.46875,293.8671875)"/>
<path d="M0 0 C5.43130177 0.50393522 9.65565636 1.96222795 14.5 4.5 C15.19359619 4.85674805 15.88719238 5.21349609 16.60180664 5.58105469 C33.86654758 14.58261445 50.07581243 25.49277991 65 38 C66.00546875 38.82113281 67.0109375 39.64226562 68.046875 40.48828125 C75.46432684 46.62596147 82.37712196 53.19607668 89.1875 60 C90.0137085 60.82540283 90.83991699 61.65080566 91.69116211 62.5012207 C101 71.89702998 101 71.89702998 101 75 C100.34 75 99.68 75 99 75 C97.56347656 73.54663086 97.56347656 73.54663086 95.890625 71.52734375 C86.36951559 60.33979404 75.67555131 49.91275374 64 41 C62.69206223 39.97608521 61.3848261 38.95127379 60.078125 37.92578125 C41.25292229 23.23604284 21.41672671 11.56550822 0 1 C0 0.67 0 0.34 0 0 Z " fill="#001842" transform="translate(423,38)"/>
<path d="M0 0 C0.66 0 1.32 0 2 0 C9.49066591 24.6998251 10.06532357 53.37998553 8.3125 79 C8.23491455 80.16208984 8.1573291 81.32417969 8.07739258 82.52148438 C7.62465822 87.80564952 7.33279174 90.79964189 4 95 C4.00666183 94.4004097 4.01332367 93.8008194 4.02018738 93.18305969 C5.67462869 51.76100806 5.67462869 51.76100806 0.45898438 10.84301758 C-0.10038957 8.59689316 -0.09648476 6.56096336 -0.0625 4.25 C-0.05347656 3.45078125 -0.04445313 2.6515625 -0.03515625 1.828125 C-0.02355469 1.22484375 -0.01195312 0.6215625 0 0 Z " fill="#002853" transform="translate(587,244)"/>
<path d="M0 0 C2.45841197 -0.02745125 4.91650533 -0.04705165 7.375 -0.0625 C8.39400391 -0.07506836 8.39400391 -0.07506836 9.43359375 -0.08789062 C13.1362743 -0.10519287 16.7263366 0.05594023 20.40283203 0.50439453 C26.94695528 1.17887887 33.45947211 1.08724689 40.03125 1.02734375 C42.03667849 1.01793686 44.04210711 1.00854128 46.04753876 0.99983311 C50.95297979 0.97699618 55.85833447 0.942955 60.76367188 0.90405273 C63.53446413 0.88249445 66.30519413 0.86621255 69.0760498 0.85560608 C71.67806682 0.84523648 74.28006628 0.82661627 76.88195801 0.79905701 C78.63518372 0.79398888 78.63518372 0.79398888 80.42382812 0.78881836 C81.97076355 0.77763222 81.97076355 0.77763222 83.5489502 0.76622009 C86 1 86 1 88 3 C76.69431828 6.76856057 62.54992933 5.23927449 50.75 5.25 C49.77999054 5.25167175 48.80998108 5.25334351 47.81057739 5.25506592 C7.88877942 5.25918628 7.88877942 5.25918628 0 0 Z " fill="#00204E" transform="translate(251,595)"/>
<path d="M0 0 C3.02303563 2.78999648 4.9445368 5.40732129 6.8125 9.0625 C14.81783998 24.15486166 24.99031786 37.97547407 36 51 C36.90134494 52.08829056 37.80237194 53.1768445 38.703125 54.265625 C44.23813076 60.89731241 50.01964716 67.19981781 56.125 73.3125 C56.77678223 73.96508789 57.42856445 74.61767578 58.10009766 75.29003906 C61.25724569 78.54111425 61.25724569 78.54111425 65 81 C65 81.66 65 82.32 65 83 C53.18419321 77.57251952 43.20999388 64.85521858 35 55 C34.54931152 54.46842285 34.09862305 53.9368457 33.63427734 53.38916016 C20.95662142 38.40353111 5.28446227 19.85338681 -1 1 C-0.67 0.67 -0.34 0.34 0 0 Z " fill="#001741" transform="translate(42,443)"/>
<path d="M0 0 C2.63493077 0.2039254 3.79027244 0.80676786 5.73828125 2.6015625 C10.05652903 8.1520646 10.05652903 8.1520646 9.75 12.75 C9.5025 13.8225 9.255 14.895 9 16 C9.66 17.32 10.32 18.64 11 20 C8.03 23.96 5.06 27.92 2 32 C-1.37641082 28.62358918 -2.27450305 26.35482564 -4 22 C-2.9275 22.04125 -1.855 22.0825 -0.75 22.125 C2.65747485 22.0114175 4.20739631 21.78726636 7 20 C6.74476562 19.48953125 6.48953125 18.9790625 6.2265625 18.453125 C3.484375 12.96875 0.7421875 7.484375 -2 2 C-1.34 1.34 -0.68 0.68 0 0 Z " fill="#1178AF" transform="translate(69,257)"/>
<path d="M0 0 C3.34951725 0.55884755 4.67773725 1.36939183 6.6640625 4.10546875 C7.14117676 4.75185303 7.61829102 5.3982373 8.10986328 6.06420898 C8.6098584 6.76489502 9.10985352 7.46558105 9.625 8.1875 C10.15206543 8.91074463 10.67913086 9.63398926 11.22216797 10.37915039 C12.30509666 11.86854419 13.38337873 13.36132739 14.45703125 14.85742188 C15.83988549 16.77766377 17.24232855 18.68071978 18.65625 20.578125 C23.27463201 26.82742674 27.48118901 33.24806775 31.4375 39.9375 C31.85080566 40.63544678 32.26411133 41.33339355 32.68994141 42.05249023 C35.13117945 46.26334834 37.17089711 50.48899705 39 55 C37.68 55 36.36 55 35 55 C34.65001953 54.23042969 34.65001953 54.23042969 34.29296875 53.4453125 C31.36615135 47.3020986 27.97493553 41.49267286 24.4375 35.6875 C23.96658936 34.91100098 23.49567871 34.13450195 23.01049805 33.33447266 C20.55011654 29.33197538 17.96128459 25.65503456 15 22 C14.2146207 20.60263684 13.46260294 19.18584174 12.75 17.75 C10.33516697 13.24381626 7.2845471 9.73272726 3.76953125 6.04296875 C2.08519983 4.09836537 1.02752885 2.34487352 0 0 Z " fill="#001A3D" transform="translate(524,114)"/>
<path d="M0 0 C2.64 0 5.28 0 8 0 C8.84023188 4.35332736 9.10770995 8.44442519 9.0625 12.875 C9.05347656 14.02742188 9.04445313 15.17984375 9.03515625 16.3671875 C9.02355469 17.23601562 9.01195312 18.10484375 9 19 C6.03 19 3.06 19 0 19 C0 12.73 0 6.46 0 0 Z " fill="#EDC95D" transform="translate(296,262)"/>
<path d="M0 0 C0.99 0.33 1.98 0.66 3 1 C3 1.66 3 2.32 3 3 C3.66 3.33 4.32 3.66 5 4 C4.15115234 5.35544922 4.15115234 5.35544922 3.28515625 6.73828125 C2.5441082 7.92958635 1.80323173 9.12099819 1.0625 10.3125 C0.68931641 10.90740234 0.31613281 11.50230469 -0.06835938 12.11523438 C-1.68824194 14.72747744 -3.02407058 17.07221173 -4 20 C-0.37 20.33 3.26 20.66 7 21 C5.25892857 28.09821429 5.25892857 28.09821429 2 31 C0.45330787 28.99502872 -1.06029997 26.97540286 -2.5625 24.9375 C-3.00013672 24.37611328 -3.43777344 23.81472656 -3.88867188 23.23632812 C-6.22057637 20.02307389 -7.01411538 18.32465369 -6.83984375 14.31640625 C-6.56269531 13.22199219 -6.28554688 12.12757813 -6 11 C-5.86722656 10.27296875 -5.73445312 9.5459375 -5.59765625 8.796875 C-4.87353636 6.61978252 -3.81152946 5.08203927 -2.4375 3.25 C-1.98246094 2.63640625 -1.52742187 2.0228125 -1.05859375 1.390625 C-0.70925781 0.93171875 -0.35992188 0.4728125 0 0 Z " fill="#0E74AC" transform="translate(530,258)"/>
<path d="M0 0 C4.9513335 -0.35366668 7.68865963 0.62436347 12 3 C17.31506288 5.55123018 22.59057994 6.99726887 28.328125 8.3515625 C31 9 31 9 34 10 C34 10.66 34 11.32 34 12 C34.65226562 11.96519531 35.30453125 11.93039062 35.9765625 11.89453125 C41.48565372 11.72389568 45.19238424 11.9636111 50 15 C50 15.33 50 15.66 50 16 C41.82927529 15.58646887 34.42540459 13.62859871 26.625 11.25 C24.91183594 10.74726562 24.91183594 10.74726562 23.1640625 10.234375 C15.62664899 7.97315095 8.03419026 5.57297064 1 2 C0.67 1.34 0.34 0.68 0 0 Z " fill="#001D49" transform="translate(189,577)"/>
<path d="M0 0 C0.66 0.33 1.32 0.66 2 1 C1.47979951 8.51233749 0.94536473 16.02356354 0.40087891 23.53417969 C0.21723374 26.09091047 0.03688501 28.64788021 -0.14013672 31.20507812 C-0.39471178 34.87437227 -0.6610138 38.54265219 -0.9296875 42.2109375 C-1.00686005 43.35992523 -1.08403259 44.50891296 -1.1635437 45.69271851 C-1.24347565 46.7536673 -1.32340759 47.81461609 -1.40576172 48.90771484 C-1.47238007 49.84481293 -1.53899841 50.78191101 -1.6076355 51.74740601 C-2 54 -2 54 -4 56 C-4.20609649 37.03912297 -3.5831699 18.65952625 0 0 Z " fill="#00204D" transform="translate(11,255)"/>
<path d="M0 0 C-1.76429199 4.97209562 -4.3939166 9.43438061 -7 14 C-9.30874711 11.83385197 -11.05290181 9.60793392 -12.75 6.9375 C-13.42289062 5.89916016 -13.42289062 5.89916016 -14.109375 4.83984375 C-14.40328125 4.23269531 -14.6971875 3.62554687 -15 3 C-14.67 2.34 -14.34 1.68 -14 1 C-12.95199219 1.01740234 -12.95199219 1.01740234 -11.8828125 1.03515625 C-10.97273438 1.04417969 -10.06265625 1.05320312 -9.125 1.0625 C-7.76761719 1.07990234 -7.76761719 1.07990234 -6.3828125 1.09765625 C-3.92124681 0.99677241 -2.42285583 0 0 0 Z " fill="#0D74AC" transform="translate(87,291)"/>
<path d="M0 0 C3.36458314 1.68229157 3.72687486 5.19844416 4.9140625 8.6171875 C10.30800372 25.41989647 10.30800372 25.41989647 10 34 C6.65884467 31.77256311 6.48058589 31.26103045 5.4296875 27.59765625 C5.1733252 26.71166748 4.91696289 25.82567871 4.65283203 24.9128418 C4.39614746 23.972229 4.13946289 23.03161621 3.875 22.0625 C3.60929199 21.1135083 3.34358398 20.1645166 3.06982422 19.18676758 C1.34456298 12.82357253 0.03103158 6.62524272 0 0 Z " fill="#00214B" transform="translate(577,205)"/>
<path d="M0 0 C3.48526879 2.77333888 4.82277668 6.69951704 6.5 10.6875 C6.94279297 11.71133789 6.94279297 11.71133789 7.39453125 12.75585938 C8.28343836 14.82932332 9.14425257 16.91265699 10 19 C10.30421875 19.71365723 10.6084375 20.42731445 10.921875 21.16259766 C12.44971315 24.9084054 13.25870707 27.14014278 12 31 C12 30.34 12 29.68 12 29 C11.34 29 10.68 29 10 29 C9.52949219 27.83082031 9.05898438 26.66164062 8.57421875 25.45703125 C7.94552928 23.90876613 7.31661094 22.36059392 6.6875 20.8125 C6.2244043 19.65911133 6.2244043 19.65911133 5.75195312 18.48242188 C4.09737822 14.42435922 2.2913459 10.74638454 0 7 C-0.75 3.75 -0.75 3.75 -1 1 C-0.67 0.67 -0.34 0.34 0 0 Z " fill="#002048" transform="translate(563,171)"/>
<path d="M0 0 C1.485 0.495 1.485 0.495 3 1 C-3.04072809 5.60903786 -9.21485664 9.90016968 -15.6875 13.875 C-16.29215088 14.2558374 -16.89680176 14.6366748 -17.51977539 15.02905273 C-21.91142837 17.67735436 -25.97958169 18.94831369 -31 20 C-28.58012097 16.37018145 -26.91900095 15.88757221 -23 14 C-19.57245643 12.03200126 -16.19458109 9.98242231 -12.8125 7.9375 C-11.91080078 7.39544922 -11.00910156 6.85339844 -10.08007812 6.29492188 C-6.67998819 4.24676643 -3.30320395 2.20213596 0 0 Z " fill="#002755" transform="translate(468,545)"/>
<path d="M0 0 C0.33 0.66 0.66 1.32 1 2 C3.97 2 6.94 2 10 2 C8.58163643 7.1576857 6.32608425 11.79975258 3 16 C2.34 16 1.68 16 1 16 C0.01 14.02 -0.98 12.04 -2 10 C-0.35 10 1.3 10 3 10 C1.68 7.03 0.36 4.06 -1 1 C-0.67 0.67 -0.34 0.34 0 0 Z " fill="#5DB8E1" transform="translate(394,266)"/>
<path d="M0 0 C4.62 0.66 9.24 1.32 14 2 C12.08905121 6.77737198 10.66186662 8.62722811 7 12 C6.0165504 10.56542672 5.03839079 9.12722594 4.0625 7.6875 C3.51722656 6.88699219 2.97195313 6.08648437 2.41015625 5.26171875 C1 3 1 3 0 0 Z " fill="#1075AC" transform="translate(516,291)"/>
<path d="M0 0 C3.42905031 1.33724907 6.76230629 2.79423246 10.08203125 4.3828125 C11.01337891 4.82753906 11.94472656 5.27226563 12.90429688 5.73046875 C13.86400391 6.19066406 14.82371094 6.65085937 15.8125 7.125 C16.79154297 7.59292969 17.77058594 8.06085937 18.77929688 8.54296875 C21.18687413 9.69390812 23.59374699 10.84629528 26 12 C26 12.66 26 13.32 26 14 C27.32 14 28.64 14 30 14 C30 14.66 30 15.32 30 16 C23.94673016 15.0196082 18.85512264 12.2701087 13.375 9.625 C12.32570312 9.13 11.27640625 8.635 10.1953125 8.125 C9.18984375 7.64289062 8.184375 7.16078125 7.1484375 6.6640625 C6.23239746 6.22529785 5.31635742 5.7865332 4.37255859 5.33447266 C2.15862269 4.08921914 0.67128723 2.89153975 -1 1 C-0.67 0.67 -0.34 0.34 0 0 Z " fill="#00194C" transform="translate(158,561)"/>
<path d="M0 0 C1.0625 1.75 1.0625 1.75 2 4 C1.67 5.32 1.34 6.64 1 8 C4.63 8.33 8.26 8.66 12 9 C10.25892857 16.09821429 10.25892857 16.09821429 7 19 C5.43146741 16.97472995 3.89729439 14.93457476 2.375 12.875 C1.92898438 12.30523437 1.48296875 11.73546875 1.0234375 11.1484375 C-0.2265625 9.4296875 -0.2265625 9.4296875 -2 6 C-1.2734375 2.5703125 -1.2734375 2.5703125 0 0 Z " fill="#257EAF" transform="translate(525,270)"/>
<path d="M0 0 C1.24716797 0.23396484 1.24716797 0.23396484 2.51953125 0.47265625 C3.60621094 0.66730469 4.69289063 0.86195313 5.8125 1.0625 C6.89144531 1.25972656 7.97039062 1.45695312 9.08203125 1.66015625 C12.05901781 2.21580075 12.05901781 2.21580075 15 1 C13.7508258 4.45925163 12.32472205 7.14693203 10 10 C7.8125 9.9375 7.8125 9.9375 5 9 C2.61372642 6.43314355 0 3.61081552 0 0 Z M7 3 C11 4 11 4 11 4 Z " fill="#5BB4DE" transform="translate(434,267)"/>
<path d="M0 0 C0.99 0 1.98 0 3 0 C4.2109375 1.44946289 4.2109375 1.44946289 5.375 3.47265625 C6.01695312 4.57577148 6.01695312 4.57577148 6.671875 5.70117188 C7.11015625 6.48041016 7.5484375 7.25964844 8 8.0625 C8.65742187 9.19075195 8.65742187 9.19075195 9.328125 10.34179688 C11.88506024 14.7894779 14.0796375 19.24331262 16 24 C14.68 24 13.36 24 12 24 C11.72027344 23.40574219 11.44054687 22.81148437 11.15234375 22.19921875 C8.2856471 16.27225429 5.03842699 10.8053449 1.35546875 5.34765625 C0 3 0 3 0 0 Z " fill="#002646" transform="translate(547,145)"/>
<path d="M0 0 C0.66 0 1.32 0 2 0 C0.58448495 4.58290517 -1.27812221 8.8240719 -3.375 13.125 C-6.47105828 19.59359352 -8.93803489 26.12251388 -11 33 C-11.66 32.67 -12.32 32.34 -13 32 C-11.51601089 24.93621183 -8.86235834 18.64446552 -5.9375 12.0625 C-5.47794922 11.00998047 -5.01839844 9.95746094 -4.54492188 8.87304688 C-1.14923855 1.14923855 -1.14923855 1.14923855 0 0 Z " fill="#00173F" transform="translate(37,174)"/>
<path d="M0 0 C-1.77945087 4.04420651 -4.39529673 7.46078487 -7 11 C-10.2843893 8.01000974 -11.38083305 5.08646897 -13 1 C-11.88625 1.020625 -10.7725 1.04125 -9.625 1.0625 C-5.88377953 0.9979962 -3.79326366 0 0 0 Z " fill="#187EB4" transform="translate(78,278)"/>
<path d="M0 0 C0 0.99 0 1.98 0 3 C-3.80619129 4.85638226 -7.61481041 6.7076563 -11.42578125 8.55419922 C-12.72236283 9.18332711 -14.01826587 9.81385541 -15.31347656 10.44580078 C-17.17337011 11.35296172 -19.03563141 12.25508803 -20.8984375 13.15625 C-22.01911621 13.70087891 -23.13979492 14.24550781 -24.29443359 14.80664062 C-27 16 -27 16 -29 16 C-28 13 -28 13 -25.83984375 11.640625 C-24.88207031 11.18171875 -23.92429688 10.7228125 -22.9375 10.25 C-21.86886719 9.73695312 -20.80023438 9.22390625 -19.69921875 8.6953125 C-13.1839828 5.68168073 -6.59676782 2.82957807 0 0 Z " fill="#001E44" transform="translate(190,31)"/>
<path d="M0 0 C0.33 0 0.66 0 1 0 C0.53079589 9.59441508 -0.94194229 18.6416621 -3 28 C-3.33 28 -3.66 28 -4 28 C-4.27733386 19.4488728 -3.52016163 11.41518047 -2 3 C-1.34 3 -0.68 3 0 3 C0 2.01 0 1.02 0 0 Z " fill="#001A4E" transform="translate(592,340)"/>
<path d="M0 0 C8.72630608 -0.09744014 17.33003296 -0.16711095 26 1 C26 1.99 26 2.98 26 4 C17.1849081 3.58440013 8.60397419 3.13031092 0 1 C0 0.67 0 0.34 0 0 Z " fill="#001D55" transform="translate(251,595)"/>
<path d="M0 0 C-0.33 0.66 -0.66 1.32 -1 2 C-10.57 2 -20.14 2 -30 2 C-30 1.34 -30 0.68 -30 0 C-19.89913869 -1.28736468 -10.11037781 -0.73019395 0 0 Z " fill="#002146" transform="translate(316,10)"/>
<path d="M0 0 C2.7652622 1.29247183 5.06515602 2.71366347 7.42578125 4.64453125 C8.05806641 5.15693359 8.69035156 5.66933594 9.34179688 6.19726562 C9.99212891 6.73029297 10.64246094 7.26332031 11.3125 7.8125 C16.09953324 11.72038082 20.93593349 15.45580856 26 19 C25.01 19.33 24.02 19.66 23 20 C21.1940918 18.99951172 21.1940918 18.99951172 19.19921875 17.4296875 C18.46896484 16.8625 17.73871094 16.2953125 16.98632812 15.7109375 C16.22771484 15.10507812 15.46910156 14.49921875 14.6875 13.875 C13.94048828 13.29234375 13.19347656 12.7096875 12.42382812 12.109375 C10.26936924 10.42212537 8.13314644 8.71407173 6 7 C5.37947754 6.51305664 4.75895508 6.02611328 4.11962891 5.52441406 C2.70806028 4.39598827 1.34761944 3.20407333 0 2 C0 1.34 0 0.68 0 0 Z " fill="#001A3E" transform="translate(108,527)"/>
<path d="M0 0 C1.65 0 3.3 0 5 0 C5 3.96 5 7.92 5 12 C3.35 12 1.7 12 0 12 C0 8.04 0 4.08 0 0 Z " fill="#EDCB5D" transform="translate(298,242)"/>
<path d="M0 0 C2 2 2 2 2.046875 4.13671875 C1.44700202 9.29089056 0.60978262 14.0633333 -1 19 C-1.99 19 -2.98 19 -4 19 C-2.42105263 2.42105263 -2.42105263 2.42105263 0 0 Z " fill="#003457" transform="translate(586,367)"/>
<path d="M0 0 C5.58492437 -0.22931478 10.4056239 0.58226393 15.8125 1.9375 C16.57498047 2.11990234 17.33746094 2.30230469 18.12304688 2.49023438 C23.68542922 3.84271461 23.68542922 3.84271461 26 5 C26 5.66 26 6.32 26 7 C22.97847907 6.3781885 19.95780786 5.75265425 16.9375 5.125 C16.08994141 4.95097656 15.24238281 4.77695312 14.36914062 4.59765625 C9.50918257 3.58438314 4.75382714 2.43195336 0 1 C0 0.67 0 0.34 0 0 Z " fill="#002749" transform="translate(352,15)"/>
<path d="M0 0 C0.33 0 0.66 0 1 0 C1.8149484 9.1775727 2.11139151 17.81819633 1 27 C-1 25 -1 25 -1.24291992 22.80102539 C-1.23881104 21.90891357 -1.23470215 21.01680176 -1.23046875 20.09765625 C-1.22853516 19.12505859 -1.22660156 18.15246094 -1.22460938 17.15039062 C-1.21236328 16.13138672 -1.20011719 15.11238281 -1.1875 14.0625 C-1.18685547 13.04736328 -1.18621094 12.03222656 -1.18554688 10.98632812 C-1.14048812 3.42146437 -1.14048812 3.42146437 0 0 Z " fill="#001E41" transform="translate(594,292)"/>
<path d="M0 0 C2.475 0.495 2.475 0.495 5 1 C5 1.66 5 2.32 5 3 C5.71542969 3.27585937 6.43085938 3.55171875 7.16796875 3.8359375 C9.95738855 4.98248522 12.62290358 6.26227115 15.3125 7.625 C16.19550781 8.07101562 17.07851562 8.51703125 17.98828125 8.9765625 C18.98408203 9.48316406 18.98408203 9.48316406 20 10 C20 10.66 20 11.32 20 12 C20.66 12.33 21.32 12.66 22 13 C21.01 13.495 21.01 13.495 20 14 C17.47514329 12.70320969 15.1005845 11.35643605 12.6875 9.875 C12.02298828 9.483125 11.35847656 9.09125 10.67382812 8.6875 C6.54326869 6.187102 3.2696082 3.55419693 0 0 Z " fill="#001743" transform="translate(135,548)"/>
<path d="M0 0 C0.22058508 4.59092706 -0.4638409 8.05455252 -2 12.375 C-2.37125 13.43460937 -2.7425 14.49421875 -3.125 15.5859375 C-3.558125 16.78089844 -3.558125 16.78089844 -4 18 C-4.66 18 -5.32 18 -6 18 C-6.39315606 11.97160702 -5.33683045 6.59552979 -3 1 C-1 0 -1 0 0 0 Z " fill="#002856" transform="translate(583,387)"/>
<path d="M0 0 C-2.18522816 0.96380382 -4.37295386 1.92109439 -6.5625 2.875 C-7.47612305 3.27912109 -7.47612305 3.27912109 -8.40820312 3.69140625 C-19.03556743 8.30222039 -19.03556743 8.30222039 -23.4375 7.625 C-23.953125 7.41875 -24.46875 7.2125 -25 7 C-19.38001309 4.59415112 -13.75550556 2.19083255 -8 0.125 C-7.319375 -0.11992187 -6.63875 -0.36484375 -5.9375 -0.6171875 C-3.65981809 -1.06721336 -2.18720817 -0.71279552 0 0 Z " fill="#001C4C" transform="translate(217,24)"/>
<path d="M0 0 C2.31 0 4.62 0 7 0 C6.5359375 1.1446875 6.5359375 1.1446875 6.0625 2.3125 C5.32106407 4.18789677 4.63771783 6.08684652 4 8 C5.65 8 7.3 8 9 8 C8.34 9.65 7.68 11.3 7 13 C6.34 13 5.68 13 5 13 C4.16209211 11.21046815 3.32980604 9.41830305 2.5 7.625 C1.80390625 6.12839844 1.80390625 6.12839844 1.09375 4.6015625 C0 2 0 2 0 0 Z " fill="#5BB5DF" transform="translate(200,268)"/>
<path d="M0 0 C-1 3 -1 3 -3.29296875 4.16796875 C-12.89897789 7.55146185 -12.89897789 7.55146185 -18 7 C-15.54273755 4.11250978 -13.10734898 3.06786714 -9.5625 1.8125 C-8.61503906 1.46832031 -7.66757812 1.12414062 -6.69140625 0.76953125 C-4 0 -4 0 0 0 Z " fill="#011C50" transform="translate(416,575)"/>
<path d="M0 0 C0.66 0.33 1.32 0.66 2 1 C1.39644592 4.85025879 0.23227397 7.86101159 -1.5625 11.3125 C-2.01753906 12.19550781 -2.47257813 13.07851563 -2.94140625 13.98828125 C-3.29074219 14.65214844 -3.64007812 15.31601562 -4 16 C-4.99 16 -5.98 16 -7 16 C-5.35433477 10.31497465 -2.70967216 5.23318364 0 0 Z " fill="#00295A" transform="translate(565,429)"/>
<path d="M0 0 C2.76519157 2.5262244 4.71214223 5.36742525 6.75 8.5 C7.38421875 9.4590625 8.0184375 10.418125 8.671875 11.40625 C9.11015625 12.2621875 9.5484375 13.118125 10 14 C9.67 14.99 9.34 15.98 9 17 C6 16 6 16 4.39453125 13.1640625 C3.87246094 11.99617187 3.35039062 10.82828125 2.8125 9.625 C2.28269531 8.46226562 1.75289063 7.29953125 1.20703125 6.1015625 C0 3 0 3 0 0 Z " fill="#3B647E" transform="translate(315,238)"/>
<path d="M0 0 C1.39211215 4.17633644 -0.0464421 5.78960515 -1.9375 9.6875 C-2.50339844 10.86699219 -3.06929688 12.04648438 -3.65234375 13.26171875 C-4.09707031 14.16535156 -4.54179687 15.06898438 -5 16 C-5.99 14.68 -6.98 13.36 -8 12 C-5.36 8.04 -2.72 4.08 0 0 Z " fill="#3D657E" transform="translate(284,241)"/>
<path d="M0 0 C0.33 0 0.66 0 1 0 C1.08117951 2.41734542 1.14056926 4.83194949 1.1875 7.25 C1.21263672 7.93191406 1.23777344 8.61382812 1.26367188 9.31640625 C1.31137459 12.59199289 1.21085076 14.65348556 -0.51171875 17.484375 C-1.00285156 17.98453125 -1.49398437 18.4846875 -2 19 C-2.11252453 12.89867013 -1.98678883 7.03037619 -1 1 C-0.67 0.67 -0.34 0.34 0 0 Z " fill="#001B4B" transform="translate(593,320)"/>
<path d="M0 0 C0.99 0.33 1.98 0.66 3 1 C-1.29 5.29 -5.58 9.58 -10 14 C-10.66 13.67 -11.32 13.34 -12 13 C-10.18777319 11.02058257 -8.37523172 9.04145495 -6.5625 7.0625 C-6.04623047 6.49853516 -5.52996094 5.93457031 -4.99804688 5.35351562 C-1.11328125 1.11328125 -1.11328125 1.11328125 0 0 Z " fill="#063760" transform="translate(287,231)"/>
<path d="M0 0 C0.66 0 1.32 0 2 0 C3.6290678 4.79137588 4.20577428 8.05632546 3 13 C2.34 13 1.68 13 1 13 C0.1276588 10.00519083 -0.10829766 7.36424089 -0.0625 4.25 C-0.05347656 3.45078125 -0.04445313 2.6515625 -0.03515625 1.828125 C-0.02355469 1.22484375 -0.01195312 0.6215625 0 0 Z " fill="#002A4C" transform="translate(587,244)"/>
<path d="M0 0 C-2.52419593 2.52419593 -4.42357863 2.78957038 -7.875 3.625 C-8.92429688 3.88539062 -9.97359375 4.14578125 -11.0546875 4.4140625 C-14 5 -14 5 -18 5 C-18 4.34 -18 3.68 -18 3 C-16.12743583 2.49095343 -14.25180659 1.99317545 -12.375 1.5 C-11.33085937 1.2215625 -10.28671875 0.943125 -9.2109375 0.65625 C-6.04312582 0.00881404 -3.22258533 -0.1161292 0 0 Z " fill="#011B4B" transform="translate(250,15)"/>
<path d="M0 0 C-1.58667578 3.90285767 -4.13350481 6.33520982 -7.125 9.25 C-8.03507812 10.14203125 -8.94515625 11.0340625 -9.8828125 11.953125 C-10.58148438 12.62859375 -11.28015625 13.3040625 -12 14 C-12.66 13.67 -13.32 13.34 -14 13 C-12.04808712 10.82722848 -10.08902463 8.66177539 -8.125 6.5 C-7.56941406 5.87996094 -7.01382813 5.25992187 -6.44140625 4.62109375 C-5.90644531 4.03457031 -5.37148438 3.44804687 -4.8203125 2.84375 C-4.32805176 2.29912109 -3.83579102 1.75449219 -3.32861328 1.19335938 C-2 0 -2 0 0 0 Z " fill="#001B4D" transform="translate(520,501)"/>
<path d="M0 0 C0.66 0.33 1.32 0.66 2 1 C1.51172287 8.47834967 0.66594452 15.68925318 -1 23 C-1.33 23 -1.66 23 -2 23 C-2.27990605 15.10042938 -1.51537186 7.7527507 0 0 Z " fill="#000E41" transform="translate(11,255)"/>
<path d="M0 0 C0.99 0 1.98 0 3 0 C3.5345256 1.24420647 4.05208611 2.49570936 4.5625 3.75 C4.85253906 4.44609375 5.14257812 5.1421875 5.44140625 5.859375 C6.07831803 8.30012784 5.80248831 9.6403655 5 12 C5 11.34 5 10.68 5 10 C4.34 10 3.68 10 3 10 C0 3.375 0 3.375 0 0 Z " fill="#001D46" transform="translate(570,190)"/>
<path d="M0 0 C0.33 0 0.66 0 1 0 C1.20674944 5.78898419 0.59162079 10.42932723 -1 16 C-1.66 15.67 -2.32 15.34 -3 15 C-2.5547115 9.72684667 -1.91626837 4.98229776 0 0 Z " fill="#001A44" transform="translate(17,227)"/>
<path d="M0 0 C0 0.99 0 1.98 0 3 C-4.8333472 3.08333357 -9.23692563 2.95261487 -14 2 C-14 1.67 -14 1.34 -14 1 C-9.32798795 -0.20568053 -4.78503708 -0.09382426 0 0 Z " fill="#001647" transform="translate(277,596)"/>
<path d="M0 0 C-2 3 -2 3 -3.6875 3.6875 C-6.80358511 4.10859258 -9.86030043 4.06037884 -13 4 C-12 2 -12 2 -9.78515625 1.11328125 C-8.88667969 0.84902344 -7.98820312 0.58476563 -7.0625 0.3125 C-6.16660156 0.04050781 -5.27070313 -0.23148438 -4.34765625 -0.51171875 C-2 -1 -2 -1 0 0 Z " fill="#001F51" transform="translate(396,583)"/>
<path d="M0 0 C-3.30260483 3.30260483 -6.7110604 3.22556369 -11.1875 3.5625 C-12.81751953 3.68818359 -12.81751953 3.68818359 -14.48046875 3.81640625 C-15.72763672 3.90728516 -15.72763672 3.90728516 -17 4 C-17 3.34 -17 2.68 -17 2 C-11.23918159 0.7017874 -5.91260345 -0.25706972 0 0 Z " fill="#002050" transform="translate(268,12)"/>
<path d="M0 0 C0 0.66 0 1.32 0 2 C-1.24176695 2.70226141 -2.49385599 3.38629109 -3.75 4.0625 C-4.79414063 4.63677734 -4.79414063 4.63677734 -5.859375 5.22265625 C-8.36140628 6.1312406 -9.5332355 5.88336837 -12 5 C-8.41210281 1.41210281 -5.05141465 0 0 0 Z " fill="#002454" transform="translate(436,566)"/>
<path d="M0 0 C0.33 0 0.66 0 1 0 C0.67 2.31 0.34 4.62 0 7 C-0.99 7.33 -1.98 7.66 -3 8 C-3.99 6.02 -4.98 4.04 -6 2 C-4.02 2 -2.04 2 0 2 C0 1.34 0 0.68 0 0 Z " fill="#5EB9E3" transform="translate(398,274)"/>
<path d="M0 0 C0.33 0.99 0.66 1.98 1 3 C-4.94 3.495 -4.94 3.495 -11 4 C-11 5.65 -11 7.3 -11 9 C-13.32789515 6.16604069 -14.07377893 4.70488428 -15 1 C-10.05 1.33 -5.1 1.66 0 2 C0 1.34 0 0.68 0 0 Z " fill="#54A8D0" transform="translate(522,246)"/>
<path d="M0 0 C3.387199 1.4388102 5.3594104 3.22119499 7.75 6 C8.67039062 7.051875 8.67039062 7.051875 9.609375 8.125 C11 10 11 10 11 12 C9 12 9 12 7.34375 10.390625 C6.7353125 9.68421875 6.126875 8.9778125 5.5 8.25 C4.8915625 7.55390625 4.283125 6.8578125 3.65625 6.140625 C2.12023037 4.15539208 1.0276034 2.28127955 0 0 Z " fill="#001336" transform="translate(513,101)"/>
<path d="M0 0 C1.21236328 0.01353516 1.21236328 0.01353516 2.44921875 0.02734375 C3.37154297 0.04474609 3.37154297 0.04474609 4.3125 0.0625 C1.0313698 2.24992014 -1.01834356 2.60692806 -4.875 3.1875 C-5.96167969 3.35507812 -7.04835938 3.52265625 -8.16796875 3.6953125 C-8.99941406 3.81648437 -9.83085937 3.93765625 -10.6875 4.0625 C-7.4284026 0.49301238 -4.73606476 -0.06863862 0 0 Z " fill="#001A4C" transform="translate(366.6875,590.9375)"/>
<path d="M0 0 C1.8125 0.125 1.8125 0.125 4 1 C5.95320589 4.20883825 7 6.2205439 7 10 C6.01 10.33 5.02 10.66 4 11 C3.52014033 9.72942818 3.0411407 8.45853152 2.5625 7.1875 C2.16224609 6.12595703 2.16224609 6.12595703 1.75390625 5.04296875 C1.13774814 3.37327604 0.56280765 1.68842296 0 0 Z " fill="#003453" transform="translate(565,180)"/>
<path d="M0 0 C4.9430602 0.49430602 8.74976194 1.36890025 13 4 C13.33 4.99 13.66 5.98 14 7 C9.0276578 5.50829734 4.58154261 3.39542583 0 1 C0 0.67 0 0.34 0 0 Z " fill="#001B4E" transform="translate(423,38)"/>
<path d="M0 0 C0.99 0 1.98 0 3 0 C1.74194623 4.50802601 0.09592835 7.4912812 -3 11 C-3.32136655 6.39374606 -2.91033076 3.66486096 0 0 Z " fill="#004049" transform="translate(557,445)"/>
<path d="M0 0 C0.66 0.66 1.32 1.32 2 2 C-1.52994613 3.17664871 -4.29455413 3.19850603 -8 3 C-8.99 2.34 -9.98 1.68 -11 1 C-7.31620978 -0.17881287 -3.84458427 -0.21358801 0 0 Z " fill="#001946" transform="translate(337,596)"/>
<path d="M0 0 C2 1 4 2 6 3 C5.34 4.65 4.68 6.3 4 8 C1.47411298 5.63707344 0.11179163 4.33537489 -1 1 C-0.67 0.67 -0.34 0.34 0 0 Z " fill="#1075AD" transform="translate(529,281)"/>
<path d="M0 0 C0.66 0.33 1.32 0.66 2 1 C0.576875 1.928125 0.576875 1.928125 -0.875 2.875 C-3.94445109 4.81970969 -3.94445109 4.81970969 -6 7 C-6.99 5.02 -7.98 3.04 -9 1 C-7.88625 1.020625 -6.7725 1.04125 -5.625 1.0625 C-2.16784079 1.26380718 -2.16784079 1.26380718 0 0 Z " fill="#56AED7" transform="translate(74,278)"/>
<path d="M0 0 C0.33 0 0.66 0 1 0 C1.40652968 5.42039575 0.03993514 9.07015675 -2 14 C-2.66 13.67 -3.32 13.34 -4 13 C-2.93204565 8.49933525 -1.85961414 4.2505466 0 0 Z " fill="#003041" transform="translate(28,193)"/>
<path d="M0 0 C-0.33 0.99 -0.66 1.98 -1 3 C-9.19256018 4.45295405 -9.19256018 4.45295405 -12.5625 2.5625 C-13.036875 2.046875 -13.51125 1.53125 -14 1 C-4.58997722 -0.14806378 -4.58997722 -0.14806378 0 0 Z " fill="#003651" transform="translate(330,596)"/>
<path d="M0 0 C2 1 2 1 3.1875 3.75 C4.01105448 7.04421792 3.94405381 8.79021705 3 12 C2.34 11.67 1.68 11.34 1 11 C0.5859375 8.49609375 0.5859375 8.49609375 0.375 5.4375 C0.30023437 4.42558594 0.22546875 3.41367188 0.1484375 2.37109375 C0.09945312 1.58863281 0.05046875 0.80617187 0 0 Z " fill="#011947" transform="translate(577,205)"/>
<path d="M0 0 C2 2 2 2 2.125 5.125 C2.08375 6.07375 2.0425 7.0225 2 8 C1.01 8 0.02 8 -1 8 C-1.33 8.99 -1.66 9.98 -2 11 C-1.85957123 9.35369672 -1.71250671 7.70795821 -1.5625 6.0625 C-1.48128906 5.14597656 -1.40007813 4.22945313 -1.31640625 3.28515625 C-1 1 -1 1 0 0 Z " fill="#002454" transform="translate(586,367)"/>
<path d="M0 0 C2 4 2 4 1.125 6.75 C0.75375 7.4925 0.3825 8.235 0 9 C-0.99 9 -1.98 9 -3 9 C-2.01 6.03 -1.02 3.06 0 0 Z " fill="#002E5C" transform="translate(574,408)"/>
<path d="M0 0 C0.33 0.66 0.66 1.32 1 2 C1.66 2 2.32 2 3 2 C2.34 4.64 1.68 7.28 1 10 C0.34 10 -0.32 10 -1 10 C-1.125 3.375 -1.125 3.375 0 0 Z " fill="#003A52" transform="translate(578,395)"/>
<path d="M0 0 C0.48210937 0.42152344 0.96421875 0.84304688 1.4609375 1.27734375 C2.09257813 1.82519531 2.72421875 2.37304688 3.375 2.9375 C4.00148438 3.48277344 4.62796875 4.02804687 5.2734375 4.58984375 C6.95632334 6.06958624 6.95632334 6.06958624 9 7 C9 7.66 9 8.32 9 9 C5.05860922 7.33248852 2.2107188 4.77289351 -1 2 C-0.67 1.34 -0.34 0.68 0 0 Z " fill="#001A3B" transform="translate(98,517)"/>
<path d="M0 0 C0.66 0 1.32 0 2 0 C1.5206753 4.31392226 0.2542015 6.16569547 -3 9 C-2.5020163 5.26512223 -2.12508244 3.18762365 0 0 Z " fill="#002B4C" transform="translate(550,457)"/>
<path d="M0 0 C-3.00617269 3.00617269 -5.82381598 2.59585316 -10 3 C-10 2.34 -10 1.68 -10 1 C-3.375 -1.125 -3.375 -1.125 0 0 Z " fill="#001A4C" transform="translate(382,588)"/>
<path d="M0 0 C0.66 0.33 1.32 0.66 2 1 C-0.64 3.64 -3.28 6.28 -6 9 C-6.33 8.34 -6.66 7.68 -7 7 C-4.66666667 4.66666667 -2.33333333 2.33333333 0 0 Z " fill="#FFA326" transform="translate(1118,339)"/>
<path d="M0 0 C0.99 0 1.98 0 3 0 C1.75023244 3.65316671 1.32901247 4.78065836 -2 7 C-2 3 -2 3 0 0 Z " fill="#0C75AE" transform="translate(72,282)"/>
<path d="M0 0 C-0.66 1.65 -1.32 3.3 -2 5 C-5.875 3.25 -5.875 3.25 -7 1 C-2.25 0 -2.25 0 0 0 Z " fill="#5BB6DF" transform="translate(537,279)"/>
<path d="M0 0 C0.33 0 0.66 0 1 0 C1.33 2.64 1.66 5.28 2 8 C1.01 8 0.02 8 -1 8 C-1.625 5.125 -1.625 5.125 -2 2 C-1.34 1.34 -0.68 0.68 0 0 Z " fill="#003E55" transform="translate(587,236)"/>
<path d="M0 0 C3.25543229 0.34879632 4.01873107 1.02133261 6.25 3.5625 C6.8275 4.366875 7.405 5.17125 8 6 C4.65750371 5.40312566 2.53563658 4.26396123 0 2 C0 1.34 0 0.68 0 0 Z " fill="#000E31" transform="translate(495,84)"/>
<path d="M0 0 C0.66 0.33 1.32 0.66 2 1 C2.73075648 3.3140622 3.40138258 5.64828869 4 8 C3.01 8.495 3.01 8.495 2 9 C1.01 6.36 0.02 3.72 -1 1 C-0.67 0.67 -0.34 0.34 0 0 Z " fill="#001948" transform="translate(38,434)"/>
<path d="M0 0 C0.33 0.66 0.66 1.32 1 2 C3.97 2 6.94 2 10 2 C9.67 2.66 9.34 3.32 9 4 C6.03 3.505 6.03 3.505 3 3 C3 3.66 3 4.32 3 5 C2.01 4.67 1.02 4.34 0 4 C-0.33 3.01 -0.66 2.02 -1 1 C-0.67 0.67 -0.34 0.34 0 0 Z " fill="#4FA9D5" transform="translate(394,266)"/>
<path d="M0 0 C0.66 0.33 1.32 0.66 2 1 C1.25 7.75 1.25 7.75 -1 10 C-1.125 3.375 -1.125 3.375 0 0 Z " fill="#001743" transform="translate(13,244)"/>
<path d="M0 0 C-0.33 0.99 -0.66 1.98 -1 3 C-4.0625 4.1875 -4.0625 4.1875 -7 5 C-6.625 3.0625 -6.625 3.0625 -6 1 C-4 0 -4 0 0 0 Z " fill="#00165F" transform="translate(416,575)"/>
<path d="M0 0 C-1.39332574 3.36720387 -2.9789286 4.9859524 -6 7 C-6 4 -6 4 -4.125 1.8125 C-2 0 -2 0 0 0 Z " fill="#00204F" transform="translate(504,517)"/>
<path d="M0 0 C0.66 0.66 1.32 1.32 2 2 C1.625 4.625 1.625 4.625 1 7 C0.34 7 -0.32 7 -1 7 C-1.625 4.625 -1.625 4.625 -2 2 C-1.34 1.34 -0.68 0.68 0 0 Z " fill="#00364D" transform="translate(581,215)"/>
<path d="M0 0 C1.89213369 2.38573379 3.02391783 4.07175348 4 7 C2.68 7 1.36 7 0 7 C-0.38133299 5.0085944 -0.71325582 3.00720923 -1 1 C-0.67 0.67 -0.34 0.34 0 0 Z " fill="#002D33" transform="translate(559,162)"/>
<path d="M0 0 C2.31 1.65 4.62 3.3 7 5 C5.68 5.33 4.36 5.66 3 6 C1.25 4.75 1.25 4.75 0 3 C0 2.01 0 1.02 0 0 Z " fill="#001032" transform="translate(480,70)"/>
<path d="M0 0 C0.928125 0.20625 1.85625 0.4125 2.8125 0.625 C2.8125 1.285 2.8125 1.945 2.8125 2.625 C-0.1575 2.295 -3.1275 1.965 -6.1875 1.625 C-3.1875 -0.375 -3.1875 -0.375 0 0 Z " fill="#001343" transform="translate(246.1875,592.375)"/>
<path d="M0 0 C-1.15173355 2.46800047 -2.04783565 4.04783565 -4 6 C-4.99 5.67 -5.98 5.34 -7 5 C-2.25 0 -2.25 0 0 0 Z " fill="#001752" transform="translate(527,493)"/>
</svg>
